<svg xmlns="http://www.w3.org/2000/svg" viewBox="0 0 130 64" width="130" height="64"><path d="M24.0 22.4L35.7 21.9L47.4 22.2L59.1 22.1L70.9 23.0L82.6 22.8L94.3 21.9L106.0 22.0L106.5 33.0L105.5 44.0L94.3 44.8L82.6 44.4L70.9 43.3L59.1 44.9L47.4 43.6L35.7 43.9L24.0 43.9L23.7 33.0L23.3 22.0" fill="#f6e6a0" opacity="0.5"/><path d="M25.5 26.0L28.6 23.9L32.0 22.3L34.6 19.2L38.6 19.1L41.4 16.5L44.7 15.1L48.4 14.9L51.7 14.0L54.8 12.2L58.5 13.1L61.7 12.4L65.1 13.0L68.3 13.2L71.6 12.9L75.1 12.8L78.1 14.8L81.5 15.3L85.1 15.3L88.0 17.9L91.5 19.0L95.2 19.6L98.6 21.1L102.2 22.3L105.0 25.1" fill="none" stroke="#c0392b" stroke-width="1.8" stroke-linecap="round" stroke-linejoin="round"/><path d="M24.7 24.5L28.1 22.9L31.4 21.1L34.6 19.3L38.3 18.5L41.5 16.6L44.8 15.3L48.2 14.3L51.7 13.8L55.2 14.0L58.2 11.6L61.7 13.1L65.1 12.8L68.3 12.5L71.7 12.5L74.9 13.6L78.3 13.8L81.6 15.1L84.7 16.8L88.1 17.8L91.9 18.0L95.5 19.1L97.9 22.6L101.8 23.0L104.7 25.6" fill="none" stroke="#c0392b" stroke-width="1.8" stroke-linecap="round" stroke-linejoin="round"/></svg>