<svg xmlns="http://www.w3.org/2000/svg" viewBox="0 0 130 64" width="130" height="64"><path d="M24.0 21.6L35.7 22.3L47.4 21.2L59.1 23.0L70.9 21.9L82.6 22.1L94.3 22.1L106.0 21.1L105.8 33.0L106.4 44.0L94.3 44.5L82.6 43.4L70.9 44.8L59.1 44.4L47.4 43.5L35.7 44.5L24.0 44.4L24.1 33.0L23.4 22.0" fill="#f6e6a0" opacity="0.5"/><path d="M25.4 25.9L28.9 24.4L31.2 20.6L35.0 20.0L38.6 19.0L41.6 16.9L45.4 16.8L48.3 14.8L51.4 13.0L55.0 13.2L58.4 12.8L61.6 11.9L65.0 12.4L68.3 12.9L71.7 12.5L75.0 13.1L78.2 14.6L81.5 15.2L85.0 15.9L87.9 18.2L92.0 17.8L94.7 20.7L98.7 20.9L101.5 23.5L105.3 24.4" fill="none" stroke="#c0392b" stroke-width="1.8" stroke-linecap="round" stroke-linejoin="round"/><path d="M24.9 24.9L28.6 23.9L32.0 22.2L35.3 20.7L38.1 17.9L41.7 17.1L44.7 15.2L48.4 15.0L51.7 13.7L54.8 12.0L58.4 12.7L61.7 12.7L65.0 12.2L68.3 13.1L71.7 11.7L75.2 12.3L78.6 12.6L81.7 14.8L85.0 15.7L88.4 17.0L91.9 18.0L94.7 20.7L98.8 20.7L101.2 24.2L104.9 25.1" fill="none" stroke="#c0392b" stroke-width="1.8" stroke-linecap="round" stroke-linejoin="round"/></svg>