<svg xmlns="http://www.w3.org/2000/svg" viewBox="0 0 130 64" width="130" height="64"><path d="M65.1 23.4L57.4 24.0L49.9 25.6L49.3 33.5L49.9 41.0L57.4 39.5L65.0 40.6" fill="none" stroke="#2e8b3d" stroke-width="1.6" stroke-linecap="round" stroke-linejoin="round"/><path d="M65.1 23.6L57.6 25.2L50.0 26.2L48.8 33.5L50.3 41.0L57.5 40.2L65.1 41.0" fill="none" stroke="#2e8b3d" stroke-width="1.6" stroke-linecap="round" stroke-linejoin="round"/><path d="M64.8 24.2L72.6 24.2L80.2 25.1L79.3 33.5L79.3 41.0L72.5 40.9L65.0 39.3" fill="none" stroke="#2e8b3d" stroke-width="1.6" stroke-linecap="round" stroke-linejoin="round"/><path d="M65.1 22.7L72.6 24.0L80.0 26.2L79.4 33.5L80.1 41.0L72.6 39.7L64.9 41.2" fill="none" stroke="#2e8b3d" stroke-width="1.6" stroke-linecap="round" stroke-linejoin="round"/><path d="M65.0 23.0L65.3 31.5L66.0 40.0" fill="none" stroke="#2e8b3d" stroke-width="1.6" stroke-linecap="round" stroke-linejoin="round"/><path d="M64.0 23.0L65.9 31.5L65.7 40.0" fill="none" stroke="#2e8b3d" stroke-width="1.6" stroke-linecap="round" stroke-linejoin="round"/></svg>