<svg xmlns="http://www.w3.org/2000/svg" viewBox="0 0 130 64" width="130" height="64"><path d="M65.3 22.5L57.3 25.6L48.8 27.5L49.9 33.6L47.8 39.8L56.8 37.8L65.0 36.4L65.1 29.1L63.9 21.6" fill="none" stroke="#2e8b3d" stroke-width="1.5" stroke-linecap="round" stroke-linejoin="round"/><path d="M65.3 22.5L56.6 23.9L48.7 27.3L48.8 33.6L49.1 39.8L57.0 38.8L65.0 36.6L65.7 29.1L65.8 21.6" fill="none" stroke="#2e8b3d" stroke-width="1.5" stroke-linecap="round" stroke-linejoin="round"/><path d="M64.7 22.5L72.9 25.0L81.1 27.8L81.3 33.6L81.2 39.8L73.2 38.0L65.0 36.5L65.8 29.1L65.9 21.6" fill="none" stroke="#2e8b3d" stroke-width="1.5" stroke-linecap="round" stroke-linejoin="round"/><path d="M65.4 20.6L72.9 25.1L81.2 27.7L81.0 33.6L80.3 39.8L72.9 39.2L65.0 36.6L64.7 29.1L66.1 21.6" fill="none" stroke="#2e8b3d" stroke-width="1.5" stroke-linecap="round" stroke-linejoin="round"/></svg>