<svg xmlns="http://www.w3.org/2000/svg" viewBox="0 0 130 64" width="130" height="64"><path d="M113.5 32.2L113.4 34.3L114.6 35.7L117.0 36.9L118.7 38.6L119.1 41.0L119.7 42.9L116.3 44.1L114.7 46.6L110.1 46.9L105.6 47.1L101.1 48.2L96.4 49.1L92.6 48.0L88.9 48.4L86.3 50.8L83.4 51.4L79.9 52.1L77.4 54.6L73.6 56.3L69.8 57.8L65.0 55.7L60.5 56.0L56.5 55.9L52.6 54.5L49.6 53.0L46.4 52.0L44.2 49.4L41.1 49.0L37.2 49.6L33.5 49.7L28.9 48.2L24.2 48.2L20.0 46.3L15.6 45.7L13.4 44.4L10.6 43.7L10.6 40.9L11.4 39.1L13.1 37.0L15.9 36.2L16.1 34.0L17.3 32.7L17.1 30.4L14.7 29.7L13.6 27.6L11.2 26.4L12.1 23.8L9.9 22.2L13.7 21.0L16.0 19.5L20.0 18.7L24.0 16.1L28.9 16.3L33.6 17.0L37.2 15.1L41.0 15.6L43.8 14.5L47.0 14.5L49.7 12.1L53.0 11.2L56.4 8.9L60.7 8.9L65.0 8.0L69.5 9.2L73.7 8.4L77.2 11.2L80.7 11.3L83.3 13.6L86.2 14.6L89.3 14.8L92.6 16.9L96.4 16.1L101.1 16.4L105.8 16.1L110.2 17.5L114.5 18.7L116.4 20.8L119.1 21.7L118.1 23.8L119.1 26.0L116.7 27.8L114.9 29.5L112.9 30.4L112.3 32.1" fill="none" stroke="#2f6fb0" stroke-width="1.5" stroke-linecap="round" stroke-linejoin="round"/><path d="M112.7 32.7L114.9 33.4L115.0 35.4L116.1 37.7L118.6 38.7L118.4 41.1L119.0 43.0L117.4 45.6L113.8 45.2L110.0 46.3L105.9 48.6L101.1 47.9L96.4 49.0L92.7 49.2L89.0 49.3L86.4 50.9L83.5 51.9L80.5 53.3L77.2 54.2L73.6 56.2L69.7 57.4L65.0 56.2L60.5 57.2L56.9 54.6L52.7 54.4L49.9 52.6L46.4 51.9L44.1 49.7L40.6 50.3L37.2 49.8L33.5 49.5L28.9 47.8L24.3 47.4L19.7 47.8L15.5 46.4L13.8 44.0L11.2 42.9L10.5 40.9L11.2 39.0L12.9 36.8L14.6 34.9L15.9 33.9L16.1 32.0L17.0 30.5L15.1 29.5L13.5 27.6L12.1 25.6L12.1 23.8L11.8 21.8L13.1 20.2L15.3 18.5L19.8 17.8L24.0 16.0L28.9 16.6L33.6 17.0L37.4 17.2L41.1 16.3L43.9 14.9L46.7 13.7L49.1 10.9L52.4 10.1L56.5 9.0L60.6 8.6L65.0 7.3L69.5 8.0L73.4 9.4L77.2 11.1L80.0 12.7L83.3 13.7L86.5 13.8L88.8 16.2L92.6 17.0L96.4 16.6L101.1 16.5L105.8 17.1L110.3 17.1L114.4 19.3L116.0 21.3L118.9 22.0L118.0 23.8L117.4 25.7L117.0 28.1L114.0 28.7L113.6 30.8L113.6 32.9" fill="none" stroke="#2f6fb0" stroke-width="1.5" stroke-linecap="round" stroke-linejoin="round"/></svg>