<svg xmlns="http://www.w3.org/2000/svg" viewBox="0 0 130 64" width="130" height="64"><path d="M118.3 31.9L110.7 38.6L102.7 44.9L90.5 47.8L77.6 47.9L64.8 49.5L52.5 47.7L39.6 47.0L27.0 44.6L18.8 39.2L11.8 31.7L19.6 26.8L26.7 19.4L39.5 16.9L52.3 16.0L65.0 14.5L77.6 16.8L90.4 17.9L103.2 18.6L110.5 26.7L119.5 31.7" fill="none" stroke="#2f6fb0" stroke-width="1.5" stroke-linecap="round" stroke-linejoin="round"/><path d="M118.4 31.9L111.4 39.5L103.3 45.6L90.3 46.4L77.8 49.7L65.1 51.5L52.3 48.8L39.7 46.6L27.1 44.5L19.3 38.6L11.9 31.7L19.1 26.1L27.6 20.5L39.5 16.9L52.2 15.5L65.0 14.4L77.8 15.6L90.3 18.5L103.0 20.0L110.9 26.1L118.3 33.1" fill="none" stroke="#2f6fb0" stroke-width="1.5" stroke-linecap="round" stroke-linejoin="round"/></svg>