<svg xmlns="http://www.w3.org/2000/svg" viewBox="0 0 130 64" width="130" height="64"><path d="M60.4 20.9L60.1 21.7L60.1 22.6L59.4 23.0L59.0 23.7L57.9 23.5L57.1 23.3L56.5 22.5L55.7 22.3L55.5 21.6L54.8 21.1L55.4 20.2L55.7 19.3L56.4 18.7L56.9 18.0L57.8 18.8L58.8 18.8L59.3 19.1L59.8 19.4L60.0 20.2L60.3 21.1" fill="#c0392b" stroke="#c0392b" stroke-width="0.8" stroke-linecap="round" stroke-linejoin="round"/><path d="M67.9 24.0L67.6 24.8L67.5 25.5L66.6 26.1L65.8 26.8L65.0 26.4L64.3 26.4L63.4 26.2L62.9 25.6L63.0 24.7L62.2 24.1L62.8 23.4L63.2 22.8L63.5 22.2L64.1 21.9L64.9 21.6L65.8 21.4L66.4 22.1L67.0 22.6L67.4 23.3L67.7 24.0" fill="#c0392b" stroke="#c0392b" stroke-width="0.8" stroke-linecap="round" stroke-linejoin="round"/><path d="M74.8 21.1L74.1 21.6L74.0 22.5L73.2 22.8L72.7 23.3L71.9 23.1L71.1 23.3L70.2 23.2L69.8 22.3L69.8 21.7L69.6 21.0L69.6 20.0L70.3 19.3L70.6 18.9L71.2 18.7L72.0 18.8L72.8 18.5L73.7 18.6L74.2 19.5L74.5 20.2L74.5 21.0" fill="#c0392b" stroke="#c0392b" stroke-width="0.8" stroke-linecap="round" stroke-linejoin="round"/></svg>