<svg xmlns="http://www.w3.org/2000/svg" viewBox="0 0 130 64" width="130" height="64"><path d="M60.5 20.9L60.4 21.8L60.1 22.6L59.5 22.9L58.9 23.4L57.9 23.2L57.0 23.3L56.7 22.8L56.1 22.3L55.6 21.7L55.8 20.9L55.6 20.3L56.0 19.6L56.3 19.0L57.1 18.7L57.9 18.9L58.8 18.6L59.6 19.3L60.5 19.4L60.9 20.2L61.0 21.0" fill="#c0392b" stroke="#c0392b" stroke-width="0.8" stroke-linecap="round" stroke-linejoin="round"/><path d="M67.9 24.0L67.8 24.9L67.1 25.4L66.7 26.2L65.7 26.4L65.0 26.5L64.2 26.6L63.4 26.0L62.7 25.2L62.8 24.6L62.8 24.0L63.0 23.3L63.1 22.5L63.8 22.4L64.3 21.9L65.0 22.0L65.8 21.7L66.5 22.1L67.1 22.6L67.4 23.4L68.0 24.0" fill="#c0392b" stroke="#c0392b" stroke-width="0.8" stroke-linecap="round" stroke-linejoin="round"/><path d="M74.8 21.0L74.6 21.7L74.4 22.5L73.6 23.2L72.8 23.9L71.9 23.4L71.1 23.4L70.5 23.1L70.0 22.5L69.6 21.8L69.7 21.0L69.7 20.3L70.3 19.7L70.7 19.1L71.4 18.7L72.0 18.5L72.7 19.0L73.6 19.0L74.2 19.5L74.2 20.3L74.9 20.9" fill="#c0392b" stroke="#c0392b" stroke-width="0.8" stroke-linecap="round" stroke-linejoin="round"/></svg>