<svg xmlns="http://www.w3.org/2000/svg" viewBox="0 0 130 64" width="130" height="64"><path d="M24.9 47.3L26.5 47.3L27.8 48.0L29.2 48.4L30.4 49.3L31.8 49.7L33.2 49.8L34.5 48.9L35.9 49.1L37.3 48.6L38.6 48.0L40.2 48.1L41.2 46.6L42.8 46.4L44.2 46.0L45.7 45.8L46.8 44.5L48.2 44.6L49.6 44.7L51.0 44.2L52.4 44.6L53.6 45.7L55.2 45.4L56.5 46.3L57.9 46.8L59.2 47.6L60.7 47.9L62.0 48.3L63.1 49.6L64.6 49.6L66.0 49.7L67.3 49.1L68.7 48.9L70.1 48.8L71.4 48.0L72.8 47.6L74.4 47.4L75.5 46.3L76.9 45.6L78.5 45.7L79.7 44.9L81.0 44.2L82.4 44.4L83.7 44.8L85.2 44.4L86.5 45.1L87.8 45.9L89.1 46.7L90.6 47.1L91.8 48.0L93.3 48.2L94.7 48.6L96.0 49.5L97.4 49.2L98.8 49.8L100.1 49.1L101.5 49.0L102.8 48.4L104.3 48.3L105.5 47.3L106.9 46.7" fill="none" stroke="#c0392b" stroke-width="1.7" stroke-linecap="round" stroke-linejoin="round"/><path d="M25.1 46.7L26.4 47.6L27.8 48.1L29.1 48.7L30.3 49.6L31.8 49.5L33.2 49.9L34.5 49.0L35.9 49.0L37.2 48.3L38.7 48.4L40.0 47.5L41.3 46.8L42.6 45.9L44.0 45.5L45.4 45.1L46.8 44.7L48.3 45.1L49.6 44.7L51.0 44.4L52.4 44.7L53.8 45.0L54.9 46.2L56.5 46.2L57.7 47.2L59.1 47.8L60.4 48.6L62.1 48.3L63.3 49.0L64.6 49.2L66.1 49.1L67.4 49.7L68.7 49.0L70.2 49.0L71.5 48.3L72.6 47.2L74.2 46.9L75.5 46.1L76.7 45.3L78.2 45.0L79.7 44.9L81.0 44.2L82.4 44.3L83.8 44.6L85.1 44.9L86.6 44.9L87.8 45.9L89.3 46.2L90.5 47.2L91.9 47.8L93.5 47.9L94.8 48.4L96.1 49.0L97.4 49.5L98.8 49.4L100.2 49.2L101.6 49.5L102.8 48.4L104.2 48.1L105.6 47.5L106.9 46.7" fill="none" stroke="#c0392b" stroke-width="1.7" stroke-linecap="round" stroke-linejoin="round"/></svg>