<svg xmlns="http://www.w3.org/2000/svg" viewBox="0 0 130 64" width="130" height="64"><path d="M24.9 47.3L26.3 47.7L27.6 48.6L29.2 48.5L30.4 49.4L31.8 49.6L33.2 49.9L34.5 49.1L35.9 49.0L37.4 49.1L38.6 48.0L40.2 48.1L41.6 47.4L42.6 46.0L44.0 45.5L45.6 45.5L46.8 44.6L48.2 44.3L49.6 44.8L51.0 44.6L52.3 45.1L53.8 44.9L55.1 45.7L56.4 46.5L58.0 46.6L59.3 47.4L60.5 48.4L61.8 49.1L63.1 49.6L64.7 49.0L66.0 49.5L67.4 49.6L68.7 49.2L70.2 48.9L71.4 48.0L72.7 47.2L74.0 46.6L75.4 46.0L77.0 45.8L78.3 45.3L79.7 44.9L81.0 44.3L82.4 44.2L83.8 44.4L85.1 45.2L86.3 45.8L87.7 46.2L89.4 46.0L90.8 46.6L91.8 48.0L93.3 48.2L94.6 49.0L96.1 49.0L97.4 49.3L98.8 49.5L100.2 49.3L101.5 49.3L102.7 48.2L104.3 48.4L105.8 47.9L106.9 46.7" fill="none" stroke="#c0392b" stroke-width="1.7" stroke-linecap="round" stroke-linejoin="round"/><path d="M25.0 47.0L26.3 47.8L27.8 48.2L29.2 48.4L30.6 48.8L31.8 49.3L33.3 49.0L34.6 49.7L36.0 49.5L37.4 48.9L38.8 48.6L40.1 47.7L41.4 46.9L42.8 46.5L44.1 45.8L45.7 45.8L47.0 45.1L48.2 44.4L49.7 44.9L50.9 44.9L52.3 45.1L53.6 45.6L55.1 45.7L56.3 46.7L57.6 47.3L59.1 47.8L60.4 48.5L61.8 49.0L63.3 49.1L64.6 49.6L66.1 49.1L67.3 49.2L68.7 49.1L69.9 48.2L71.4 48.1L72.9 47.8L74.3 47.1L75.5 46.1L77.1 46.2L78.4 45.4L79.6 44.7L81.1 44.8L82.4 44.6L83.8 44.7L85.1 44.7L86.3 45.8L87.8 45.9L89.1 46.6L90.5 47.2L91.8 48.1L93.5 47.8L94.7 48.8L96.0 49.4L97.5 49.1L98.8 49.4L100.1 48.9L101.5 48.9L102.9 48.6L104.1 47.9L105.5 47.4L107.2 47.4" fill="none" stroke="#c0392b" stroke-width="1.7" stroke-linecap="round" stroke-linejoin="round"/></svg>