<svg xmlns="http://www.w3.org/2000/svg" viewBox="0 0 130 64" width="130" height="64"><path d="M112.4 32.9L112.9 34.6L114.9 35.5L116.3 37.5L117.5 39.7L118.6 41.1L119.7 42.9L116.1 43.8L113.8 45.3L110.3 48.2L105.7 47.3L101.1 48.4L96.5 49.6L92.8 49.7L89.1 50.2L86.0 49.9L83.6 52.2L80.9 54.1L77.7 55.1L73.2 55.0L69.5 56.8L65.0 56.4L60.5 56.8L56.4 56.4L52.3 55.7L49.4 53.5L46.1 52.5L43.6 51.0L41.1 49.1L37.3 49.3L33.6 48.6L28.9 47.9L24.2 48.3L19.8 47.4L15.7 45.3L13.4 44.5L11.0 43.2L11.5 41.1L11.7 39.1L13.2 37.1L15.9 36.2L15.6 33.7L17.9 33.0L16.8 30.5L16.0 29.0L12.9 28.2L11.9 25.8L12.6 23.7L10.6 22.0L12.8 19.7L15.8 19.2L19.8 17.3L24.3 17.3L28.9 16.0L33.7 17.6L37.2 15.5L40.9 14.7L44.0 15.0L46.5 13.1L49.7 12.1L52.6 10.5L56.8 10.3L60.5 8.3L65.0 8.0L69.5 7.1L73.4 9.4L77.5 9.9L80.3 12.1L83.3 13.7L86.2 14.5L89.4 14.7L92.7 16.1L96.4 16.5L101.1 17.2L105.7 18.3L110.2 17.4L114.5 18.7L117.3 19.6L118.5 22.5L119.2 24.0L117.4 25.7L115.9 27.2L115.2 29.9L113.1 30.5L113.0 32.5" fill="none" stroke="#2f6fb0" stroke-width="1.5" stroke-linecap="round" stroke-linejoin="round"/><path d="M113.2 32.4L113.8 34.1L113.9 36.1L116.5 37.3L118.2 39.1L119.0 41.0L118.1 43.2L116.7 44.6L114.7 46.5L110.3 47.8L105.9 48.5L101.0 47.4L96.3 47.8L92.6 47.8L88.9 48.4L86.0 50.0L83.1 50.9L80.2 52.6L77.0 53.9L73.2 54.9L69.7 57.5L65.0 56.0L60.5 57.2L56.4 56.2L52.9 53.6L49.1 54.1L46.6 51.5L43.7 50.8L41.3 48.7L37.3 48.7L33.7 47.5L29.0 47.1L24.2 47.5L19.7 48.1L15.6 45.8L12.8 45.4L11.7 42.1L12.3 41.3L11.4 39.1L13.0 36.8L15.6 35.9L16.6 34.3L18.0 33.1L16.4 30.8L14.4 29.9L13.9 27.3L11.1 26.6L12.3 23.7L11.7 21.8L13.7 20.9L16.1 19.5L19.9 18.1L24.4 18.2L28.9 17.2L33.6 16.5L37.3 15.8L41.0 15.3L43.4 13.5L46.3 12.7L49.9 12.6L52.3 9.9L56.7 9.7L60.7 8.9L65.0 8.7L69.5 8.3L73.5 8.9L77.5 9.9L80.7 11.3L83.2 13.8L86.0 15.0L88.6 16.6L92.7 15.7L96.3 17.5L101.0 17.8L105.8 16.6L109.9 19.0L114.4 19.1L116.1 21.3L118.6 22.5L118.9 24.0L118.7 25.9L116.4 27.6L114.8 29.5L114.9 31.5L112.2 32.1" fill="none" stroke="#2f6fb0" stroke-width="1.5" stroke-linecap="round" stroke-linejoin="round"/></svg>