<svg xmlns="http://www.w3.org/2000/svg" viewBox="0 0 130 64" width="130" height="64"><path d="M118.7 32.3L110.4 38.2L103.1 45.4L90.4 47.3L77.6 48.0L65.0 50.9L52.4 48.2L39.5 47.8L26.9 45.7L18.6 39.5L11.3 32.4L18.6 25.5L26.5 19.1L39.5 17.2L52.3 16.1L64.9 13.9L77.7 16.0L90.2 19.1L103.0 20.1L110.4 26.8L119.3 32.0" fill="none" stroke="#2f6fb0" stroke-width="1.5" stroke-linecap="round" stroke-linejoin="round"/><path d="M119.0 32.7L111.6 39.7L102.8 45.0L90.4 47.4L77.8 49.4L65.2 51.8L52.2 49.6L39.6 47.7L26.9 45.6L19.7 38.1L11.5 32.1L18.7 25.7L26.7 19.4L39.5 17.1L52.5 17.2L65.0 14.0L77.6 16.8L90.3 18.4L102.9 20.6L111.7 25.2L119.1 32.2" fill="none" stroke="#2f6fb0" stroke-width="1.5" stroke-linecap="round" stroke-linejoin="round"/></svg>