<svg xmlns="http://www.w3.org/2000/svg" viewBox="0 0 130 64" width="130" height="64"><path d="M23.0 21.0L35.0 19.0L47.0 20.3L59.0 19.1L71.0 20.6L83.0 20.4L95.0 19.4L107.0 19.3L106.4 32.5L106.9 45.0L95.0 44.4L83.0 45.3L71.0 45.4L59.0 43.9L47.0 44.6L35.0 45.0L23.0 44.9L23.5 32.5L23.5 20.0" fill="#f0d24f" opacity="0.3"/><path d="M23.0 21.0L35.0 19.8L47.0 20.8L59.0 20.4L71.0 20.8L83.0 20.7L95.0 20.8L107.0 20.9L105.9 32.5L106.7 45.0L95.0 44.9L83.0 44.5L71.0 44.3L59.0 45.2L47.0 45.2L35.0 45.8L23.0 44.4L24.2 32.5L22.7 20.0" fill="none" stroke="#c0392b" stroke-width="1.7" stroke-linecap="round" stroke-linejoin="round"/><path d="M23.0 19.2L35.0 19.3L47.0 19.8L59.0 19.5L71.0 21.1L83.0 18.9L95.0 19.5L107.0 19.1L106.6 32.5L106.3 45.0L95.0 45.8L83.0 46.1L71.0 45.1L59.0 44.8L47.0 44.0L35.0 46.1L23.0 45.9L22.2 32.5L22.3 20.0" fill="none" stroke="#c0392b" stroke-width="1.7" stroke-linecap="round" stroke-linejoin="round"/></svg>