<svg xmlns="http://www.w3.org/2000/svg" viewBox="0 0 130 64" width="130" height="64"><path d="M23.0 21.2L35.0 19.9L47.0 19.0L59.0 18.9L71.0 20.9L83.0 18.9L95.0 20.5L107.0 20.2L107.5 32.5L106.3 45.0L95.0 46.2L83.0 45.9L71.0 45.1L59.0 46.1L47.0 44.2L35.0 45.6L23.0 45.9L21.9 32.5L23.3 20.0" fill="#f0d24f" opacity="0.3"/><path d="M23.0 19.9L35.0 20.3L47.0 20.4L59.0 20.7L71.0 21.1L83.0 20.4L95.0 19.3L107.0 19.9L107.8 32.5L108.2 45.0L95.0 45.1L83.0 44.5L71.0 45.8L59.0 45.5L47.0 45.4L35.0 44.5L23.0 45.0L23.3 32.5L23.6 20.0" fill="none" stroke="#c0392b" stroke-width="1.7" stroke-linecap="round" stroke-linejoin="round"/><path d="M23.0 19.7L35.0 20.7L47.0 21.0L59.0 19.0L71.0 21.0L83.0 20.5L95.0 19.1L107.0 19.9L106.7 32.5L106.0 45.0L95.0 45.3L83.0 44.8L71.0 44.1L59.0 44.3L47.0 43.9L35.0 45.1L23.0 44.6L22.3 32.5L23.5 20.0" fill="none" stroke="#c0392b" stroke-width="1.7" stroke-linecap="round" stroke-linejoin="round"/></svg>