<svg xmlns="http://www.w3.org/2000/svg" viewBox="0 0 130 64" width="130" height="64"><path d="M118.7 32.4L111.2 39.3L103.2 45.5L90.3 46.3L77.6 47.9L65.1 51.3L52.4 48.0L39.8 46.0L27.0 45.3L19.2 38.8L10.7 33.1L19.1 26.2L26.9 19.7L39.7 18.2L52.2 15.0L65.2 15.5L77.7 16.2L90.4 17.7L103.0 20.4L110.8 26.2L118.8 32.5" fill="#d9b38c" opacity="0.35"/><path d="M118.5 32.1L111.6 39.7L103.0 45.3L90.4 47.3L77.5 47.8L64.9 49.6L52.2 49.4L39.6 47.2L26.8 46.2L19.0 39.0L11.7 31.9L19.7 26.8L26.9 19.6L39.6 17.5L52.2 15.4L65.0 14.6L77.5 17.1L90.5 17.0L103.0 20.3L111.7 25.2L119.3 31.9" fill="none" stroke="#8a5a2b" stroke-width="1.5" stroke-linecap="round" stroke-linejoin="round"/><path d="M119.2 33.0L110.7 38.6L103.3 45.7L90.4 47.4L77.6 48.6L65.1 51.6L52.4 48.3L39.5 48.0L26.9 45.3L18.7 39.4L10.7 33.1L19.1 26.1L26.8 19.6L39.6 17.6L52.3 15.9L65.0 14.4L77.8 15.3L90.5 17.2L103.0 20.0L110.7 26.3L118.8 32.6" fill="none" stroke="#8a5a2b" stroke-width="1.5" stroke-linecap="round" stroke-linejoin="round"/></svg>