<svg xmlns="http://www.w3.org/2000/svg" viewBox="0 0 130 64" width="130" height="64"><path d="M113.9 32.0L114.4 33.7L114.6 35.6L116.1 37.7L118.5 38.9L117.5 41.3L119.3 43.0L116.7 44.7L115.0 46.9L109.9 45.9L105.9 48.7L101.0 47.2L96.4 48.4L92.7 48.8L89.0 49.2L86.4 51.0L83.0 50.6L79.9 52.0L77.0 53.9L73.4 55.4L69.7 57.6L65.0 56.0L60.5 57.3L56.8 54.7L52.5 55.1L49.7 52.9L47.0 50.8L43.5 51.2L41.0 49.3L37.2 49.9L33.5 49.6L28.9 48.9L24.3 46.7L20.1 46.0L15.6 45.8L13.0 45.0L11.3 42.7L12.0 41.2L11.6 39.1L13.7 37.5L15.7 36.0L15.1 33.4L16.4 32.1L16.0 31.0L14.5 29.9L13.3 27.8L12.0 25.7L10.7 24.0L11.1 21.9L13.0 19.9L15.6 18.9L19.8 17.6L24.3 17.5L28.8 15.7L33.6 16.9L37.2 15.2L41.1 16.7L43.9 14.8L46.6 13.4L49.5 11.8L52.8 10.7L56.7 9.8L60.7 8.8L65.0 8.9L69.5 8.2L73.1 10.5L77.2 11.2L80.0 12.7L83.5 13.3L86.3 14.4L88.9 15.8L92.6 17.0L96.4 16.6L101.1 16.9L105.8 17.0L109.9 18.9L114.5 18.4L117.3 19.5L118.6 22.4L117.6 23.7L117.6 25.7L116.3 27.5L114.3 29.0L114.3 31.2L112.8 32.4" fill="#d9b38c" opacity="0.35"/><path d="M113.9 32.0L114.7 33.6L114.9 35.5L116.5 37.4L118.3 39.0L119.6 40.9L118.5 43.1L116.7 44.6L114.8 46.7L110.2 47.5L105.8 48.1L101.1 48.8L96.5 49.5L92.6 48.0L88.9 48.3L86.1 50.1L83.1 50.7L80.5 53.2L77.1 53.9L73.6 56.3L69.3 56.2L65.0 56.6L60.5 55.8L56.3 56.6L52.8 53.9L49.2 53.8L46.6 51.5L44.2 49.5L40.6 50.5L37.2 49.5L33.5 49.0L28.9 48.6L24.2 48.9L20.1 46.1L15.7 45.5L13.2 44.8L10.9 43.3L11.7 41.1L10.8 38.9L12.7 36.6L15.9 36.2L15.7 33.8L17.0 32.5L17.0 30.4L16.2 28.9L13.5 27.7L11.3 26.3L11.0 24.0L12.1 21.7L13.9 21.2L15.1 18.2L20.0 18.8L24.2 16.8L28.9 16.8L33.6 15.7L37.4 17.0L41.1 16.8L43.5 13.9L46.7 13.8L49.3 11.3L53.0 11.3L56.3 8.3L60.3 7.3L65.0 8.8L69.5 7.8L73.2 10.3L77.1 11.3L80.2 12.4L83.8 12.7L86.0 15.0L88.6 16.6L92.7 15.9L96.5 15.5L101.1 16.2L105.8 16.7L110.0 18.5L114.6 18.1L117.1 19.7L119.3 21.4L118.2 23.8L117.5 25.7L116.7 27.9L114.5 29.2L113.1 30.5L112.8 32.4" fill="none" stroke="#8a5a2b" stroke-width="1.5" stroke-linecap="round" stroke-linejoin="round"/><path d="M113.6 32.2L114.3 33.8L113.9 36.1L116.2 37.6L118.5 38.8L118.2 41.2L119.9 42.9L116.0 43.7L114.5 46.3L110.1 47.0L105.8 47.8L101.2 49.3L96.4 48.3L92.8 49.5L89.1 50.0L85.9 49.8L83.7 52.5L80.6 53.5L77.1 54.0L73.6 56.2L69.6 57.3L65.0 56.6L60.5 57.5L56.8 54.7L52.9 53.4L49.1 54.0L46.6 51.6L44.0 49.9L40.9 49.6L37.4 47.9L33.6 48.5L28.9 48.9L24.2 47.7L19.9 46.7L15.5 46.5L13.5 44.3L11.5 42.5L11.5 41.1L11.9 39.2L14.1 37.9L15.5 35.9L16.1 34.0L17.9 33.0L15.4 31.4L15.8 29.1L12.9 28.2L12.0 25.7L10.8 24.0L10.9 22.0L13.7 20.9L15.9 19.4L20.0 18.7L24.1 16.5L28.9 16.8L33.6 15.8L37.3 16.3L41.0 15.6L43.4 13.5L46.7 13.7L49.8 12.4L52.7 10.6L56.8 10.2L60.3 7.5L65.0 7.4L69.5 7.1L73.4 9.3L77.4 10.3L80.4 11.8L83.6 13.0L85.9 15.2L89.4 14.7L92.6 17.0L96.4 16.7L101.1 16.9L105.7 17.8L110.2 17.3L114.6 18.0L117.0 20.0L119.6 21.1L119.0 24.0L117.9 25.8L116.4 27.6L115.2 29.8L113.7 30.9L113.9 33.0" fill="none" stroke="#8a5a2b" stroke-width="1.5" stroke-linecap="round" stroke-linejoin="round"/></svg>