<svg xmlns="http://www.w3.org/2000/svg" viewBox="0 0 130 64" width="130" height="64"><path d="M23.0 20.6L35.0 20.8L47.0 18.9L59.0 19.4L71.0 19.4L83.0 20.7L95.0 21.0L107.0 19.4L108.0 32.5L105.9 45.0L95.0 43.9L83.0 44.5L71.0 45.1L59.0 44.4L47.0 44.4L35.0 45.0L23.0 45.5L23.1 32.5L23.4 20.0" fill="#f6c48f" opacity="0.3"/><path d="M23.0 19.6L35.0 20.3L47.0 19.2L59.0 21.1L71.0 19.3L83.0 19.3L95.0 21.1L107.0 21.1L106.0 32.5L106.2 45.0L95.0 44.2L83.0 44.2L71.0 44.8L59.0 46.0L47.0 44.4L35.0 44.2L23.0 44.2L21.9 32.5L21.9 20.0" fill="none" stroke="#e07b1a" stroke-width="1.7" stroke-linecap="round" stroke-linejoin="round"/><path d="M23.0 20.6L35.0 20.0L47.0 20.9L59.0 21.2L71.0 19.9L83.0 20.4L95.0 20.4L107.0 20.5L107.3 32.5L106.7 45.0L95.0 46.0L83.0 44.0L71.0 44.5L59.0 44.3L47.0 45.1L35.0 45.7L23.0 45.1L23.4 32.5L23.1 20.0" fill="none" stroke="#e07b1a" stroke-width="1.7" stroke-linecap="round" stroke-linejoin="round"/></svg>