<svg xmlns="http://www.w3.org/2000/svg" viewBox="0 0 130 64" width="130" height="64"><path d="M23.0 21.1L35.0 18.9L47.0 20.6L59.0 19.8L71.0 18.9L83.0 19.2L95.0 19.2L107.0 20.6L107.7 32.5L108.2 45.0L95.0 45.7L83.0 44.3L71.0 45.0L59.0 44.6L47.0 45.1L35.0 45.8L23.0 46.2L22.5 32.5L21.9 20.0" fill="#f6c48f" opacity="0.3"/><path d="M23.0 19.4L35.0 20.3L47.0 19.7L59.0 19.9L71.0 20.3L83.0 19.6L95.0 19.7L107.0 20.9L106.8 32.5L107.2 45.0L95.0 44.9L83.0 45.1L71.0 45.4L59.0 44.0L47.0 45.6L35.0 44.0L23.0 44.2L23.9 32.5L22.2 20.0" fill="none" stroke="#e07b1a" stroke-width="1.7" stroke-linecap="round" stroke-linejoin="round"/><path d="M23.0 20.0L35.0 21.2L47.0 19.5L59.0 19.2L71.0 20.5L83.0 19.4L95.0 20.2L107.0 19.2L105.9 32.5L107.5 45.0L95.0 46.0L83.0 44.6L71.0 45.4L59.0 44.9L47.0 45.0L35.0 44.0L23.0 45.0L22.7 32.5L21.8 20.0" fill="none" stroke="#e07b1a" stroke-width="1.7" stroke-linecap="round" stroke-linejoin="round"/></svg>