<svg xmlns="http://www.w3.org/2000/svg" viewBox="0 0 130 64" width="130" height="64"><path d="M64.2 45.0L64.9 35.5L66.2 26.0" fill="none" stroke="#c0392b" stroke-width="1.9" stroke-linecap="round" stroke-linejoin="round"/><path d="M65.6 45.0L64.6 35.5L65.6 26.0" fill="none" stroke="#c0392b" stroke-width="1.9" stroke-linecap="round" stroke-linejoin="round"/><path d="M54.8 19.0L56.2 24.0L55.1 29.0" fill="none" stroke="#c0392b" stroke-width="1.7" stroke-linecap="round" stroke-linejoin="round"/><path d="M56.9 19.0L54.8 24.0L56.0 29.0" fill="none" stroke="#c0392b" stroke-width="1.7" stroke-linecap="round" stroke-linejoin="round"/><path d="M65.6 17.0L64.2 23.0L64.6 29.0" fill="none" stroke="#c0392b" stroke-width="1.7" stroke-linecap="round" stroke-linejoin="round"/><path d="M63.9 17.0L64.2 23.0L64.3 29.0" fill="none" stroke="#c0392b" stroke-width="1.7" stroke-linecap="round" stroke-linejoin="round"/><path d="M74.0 19.0L72.8 24.0L75.0 29.0" fill="none" stroke="#c0392b" stroke-width="1.7" stroke-linecap="round" stroke-linejoin="round"/><path d="M73.1 19.0L73.5 24.0L74.6 29.0" fill="none" stroke="#c0392b" stroke-width="1.7" stroke-linecap="round" stroke-linejoin="round"/><path d="M56.0 29.7L65.0 28.9L74.0 29.1" fill="none" stroke="#c0392b" stroke-width="1.7" stroke-linecap="round" stroke-linejoin="round"/><path d="M56.0 29.9L65.0 28.3L74.0 28.5" fill="none" stroke="#c0392b" stroke-width="1.7" stroke-linecap="round" stroke-linejoin="round"/></svg>