<svg xmlns="http://www.w3.org/2000/svg" viewBox="0 0 130 64" width="130" height="64"><path d="M65.8 45.0L65.4 35.5L65.8 26.0" fill="none" stroke="#c0392b" stroke-width="1.9" stroke-linecap="round" stroke-linejoin="round"/><path d="M65.7 45.0L65.8 35.5L65.9 26.0" fill="none" stroke="#c0392b" stroke-width="1.9" stroke-linecap="round" stroke-linejoin="round"/><path d="M54.9 19.0L55.7 24.0L55.9 29.0" fill="none" stroke="#c0392b" stroke-width="1.7" stroke-linecap="round" stroke-linejoin="round"/><path d="M55.5 19.0L55.3 24.0L56.2 29.0" fill="none" stroke="#c0392b" stroke-width="1.7" stroke-linecap="round" stroke-linejoin="round"/><path d="M65.2 17.0L65.8 23.0L64.4 29.0" fill="none" stroke="#c0392b" stroke-width="1.7" stroke-linecap="round" stroke-linejoin="round"/><path d="M63.8 17.0L65.3 23.0L65.8 29.0" fill="none" stroke="#c0392b" stroke-width="1.7" stroke-linecap="round" stroke-linejoin="round"/><path d="M74.7 19.0L74.2 24.0L74.5 29.0" fill="none" stroke="#c0392b" stroke-width="1.7" stroke-linecap="round" stroke-linejoin="round"/><path d="M72.9 19.0L75.1 24.0L74.5 29.0" fill="none" stroke="#c0392b" stroke-width="1.7" stroke-linecap="round" stroke-linejoin="round"/><path d="M56.0 28.1L65.0 29.4L74.0 29.7" fill="none" stroke="#c0392b" stroke-width="1.7" stroke-linecap="round" stroke-linejoin="round"/><path d="M56.0 28.2L65.0 27.9L74.0 28.9" fill="none" stroke="#c0392b" stroke-width="1.7" stroke-linecap="round" stroke-linejoin="round"/></svg>