<svg xmlns="http://www.w3.org/2000/svg" viewBox="0 0 130 64" width="130" height="64"><path d="M20.9 45.0L20.9 38.0L22.3 31.0L22.0 31.0L22.0 31.0L23.8 29.8L23.0 27.4L25.9 26.4L28.4 25.3L30.9 22.5L34.8 22.2L39.1 21.2L43.7 20.8L48.8 20.0L53.8 17.8L59.4 18.5L65.0 17.0L70.6 18.0L76.1 18.2L81.4 18.0L86.5 19.5L91.0 20.4L95.4 21.8L99.0 22.7L102.5 23.7L104.5 25.9L106.6 27.6L108.0 29.0L107.6 31.2L108.6 38.0L109.0 45.0" fill="none" stroke="#6d6d6d" stroke-width="1.8" stroke-linecap="round" stroke-linejoin="round"/><path d="M21.6 45.0L21.8 38.0L21.2 31.0L22.0 31.0L22.0 31.0L22.8 29.4L23.9 27.8L24.9 25.1L27.6 24.3L31.1 22.9L34.2 20.8L39.0 20.6L43.3 18.7L48.7 19.1L53.9 18.6L59.4 18.1L65.0 17.6L70.6 17.6L76.2 17.3L81.4 18.7L86.4 20.7L90.9 20.9L95.5 21.3L98.7 23.5L102.5 23.8L104.4 26.0L106.4 27.9L106.3 29.8L108.3 30.9L107.8 38.0L106.9 45.0" fill="none" stroke="#6d6d6d" stroke-width="1.8" stroke-linecap="round" stroke-linejoin="round"/></svg>