<svg xmlns="http://www.w3.org/2000/svg" viewBox="0 0 130 64" width="130" height="64"><path d="M22.1 45.0L22.0 38.0L23.1 31.0L22.0 31.0L22.0 31.0L23.0 29.4L24.1 27.9L25.0 25.2L27.9 24.7L31.4 23.7L34.2 20.8L39.3 21.8L43.3 18.9L48.7 19.0L53.8 17.7L59.4 18.2L65.0 18.3L70.6 17.2L76.1 19.5L81.3 18.9L86.5 19.8L90.9 21.0L95.5 21.5L99.0 22.7L102.1 24.8L104.3 26.2L106.8 27.2L106.8 29.5L108.4 30.8L109.2 38.0L108.6 45.0" fill="none" stroke="#6d6d6d" stroke-width="1.8" stroke-linecap="round" stroke-linejoin="round"/><path d="M20.9 45.0L21.2 38.0L22.6 31.0L22.0 31.0L22.0 31.0L23.3 29.6L22.5 27.2L26.3 27.0L28.4 25.4L30.8 22.2L35.0 22.7L39.0 20.6L43.5 19.7L48.8 20.2L53.8 17.8L59.4 18.3L65.0 19.0L70.5 18.8L76.1 18.4L81.2 20.2L86.4 20.5L90.9 21.0L95.6 20.9L98.7 23.4L102.3 24.4L104.8 25.5L107.2 26.8L107.2 29.3L108.8 30.6L108.1 38.0L107.6 45.0" fill="none" stroke="#6d6d6d" stroke-width="1.8" stroke-linecap="round" stroke-linejoin="round"/></svg>