<svg xmlns="http://www.w3.org/2000/svg" viewBox="0 0 130 64" width="130" height="64"><path d="M23.0 19.8L35.0 20.5L47.0 19.2L59.0 19.5L71.0 20.4L83.0 21.1L95.0 19.6L107.0 19.2L107.3 32.5L105.8 45.0L95.0 45.8L83.0 44.7L71.0 45.3L59.0 44.7L47.0 45.7L35.0 44.7L23.0 44.1L23.9 32.5L23.3 20.0" fill="none" stroke="#2e8b3d" stroke-width="1.7" stroke-linecap="round" stroke-linejoin="round"/><path d="M23.0 20.0L35.0 20.2L47.0 19.1L59.0 20.8L71.0 20.5L83.0 19.9L95.0 20.4L107.0 19.8L107.3 32.5L107.6 45.0L95.0 44.8L83.0 44.8L71.0 45.0L59.0 46.1L47.0 44.7L35.0 45.1L23.0 44.8L23.2 32.5L24.0 20.0" fill="none" stroke="#2e8b3d" stroke-width="1.7" stroke-linecap="round" stroke-linejoin="round"/></svg>