<svg xmlns="http://www.w3.org/2000/svg" viewBox="0 0 130 64" width="130" height="64"><path d="M23.0 19.2L35.0 20.6L47.0 20.9L59.0 19.5L71.0 18.9L83.0 20.0L95.0 20.1L107.0 20.2L105.9 32.5L106.6 45.0L95.0 44.3L83.0 46.0L71.0 44.9L59.0 44.3L47.0 46.0L35.0 46.0L23.0 44.4L24.0 32.5L22.0 20.0" fill="none" stroke="#2e8b3d" stroke-width="1.7" stroke-linecap="round" stroke-linejoin="round"/><path d="M23.0 20.3L35.0 19.1L47.0 20.6L59.0 20.4L71.0 19.4L83.0 19.3L95.0 20.6L107.0 20.1L106.4 32.5L107.3 45.0L95.0 45.4L83.0 43.9L71.0 44.6L59.0 45.0L47.0 44.9L35.0 44.5L23.0 44.5L24.0 32.5L22.8 20.0" fill="none" stroke="#2e8b3d" stroke-width="1.7" stroke-linecap="round" stroke-linejoin="round"/></svg>