<svg xmlns="http://www.w3.org/2000/svg" viewBox="0 0 130 64" width="130" height="64"><path d="M25.0 46.3L36.7 46.3L48.4 45.1L60.1 47.1L71.9 46.0L83.6 45.4L95.3 47.2L107.0 45.7" fill="none" stroke="#2e8b3d" stroke-width="1.8" stroke-linecap="round" stroke-linejoin="round"/><path d="M25.0 45.0L36.7 46.4L48.4 45.4L60.1 45.3L71.9 45.5L83.6 46.3L95.3 45.6L107.0 46.4" fill="none" stroke="#2e8b3d" stroke-width="1.8" stroke-linecap="round" stroke-linejoin="round"/><path d="M25.0 51.0L36.7 51.2L48.4 50.9L60.1 51.0L71.9 49.4L83.6 50.8L95.3 49.0L107.0 50.2" fill="none" stroke="#2e8b3d" stroke-width="1.6" stroke-linecap="round" stroke-linejoin="round"/><path d="M25.0 49.0L36.7 49.0L48.4 51.1L60.1 49.1L71.9 50.5L83.6 50.1L95.3 48.8L107.0 50.7" fill="none" stroke="#2e8b3d" stroke-width="1.6" stroke-linecap="round" stroke-linejoin="round"/></svg>