<svg xmlns="http://www.w3.org/2000/svg" viewBox="0 0 130 64" width="130" height="64"><path d="M25.0 47.1L36.7 45.6L48.4 47.0L60.1 47.0L71.9 45.5L83.6 47.1L95.3 46.3L107.0 47.1" fill="none" stroke="#2e8b3d" stroke-width="1.8" stroke-linecap="round" stroke-linejoin="round"/><path d="M25.0 46.7L36.7 45.6L48.4 45.5L60.1 46.1L71.9 46.0L83.6 44.9L95.3 46.9L107.0 46.1" fill="none" stroke="#2e8b3d" stroke-width="1.8" stroke-linecap="round" stroke-linejoin="round"/><path d="M25.0 49.9L36.7 50.6L48.4 49.4L60.1 49.3L71.9 50.2L83.6 49.4L95.3 49.6L107.0 49.0" fill="none" stroke="#2e8b3d" stroke-width="1.6" stroke-linecap="round" stroke-linejoin="round"/><path d="M25.0 48.9L36.7 49.7L48.4 50.1L60.1 51.1L71.9 50.3L83.6 49.8L95.3 49.8L107.0 49.4" fill="none" stroke="#2e8b3d" stroke-width="1.6" stroke-linecap="round" stroke-linejoin="round"/></svg>