<svg xmlns="http://www.w3.org/2000/svg" viewBox="0 0 130 64" width="130" height="64"><path d="M65.1 14.1L56.1 20.5L46.8 26.4L38.6 33.9L29.8 40.4L20.9 46.8L33.6 46.2L46.1 47.0L58.7 47.3L71.3 47.7L83.9 46.0L96.4 46.5L109.0 46.0L100.6 39.8L91.7 33.4L81.9 28.1L74.5 19.7L65.7 13.1" fill="none" stroke="#6a3d9a" stroke-width="1.8" stroke-linecap="round" stroke-linejoin="round"/><path d="M64.8 13.7L56.0 20.4L47.9 27.9L39.3 34.7L29.8 40.3L21.6 47.8L33.6 46.3L46.1 46.4L58.7 45.9L71.3 46.9L83.9 46.9L96.4 47.8L109.0 47.0L100.4 40.1L91.4 33.8L82.8 26.9L73.7 20.7L64.7 14.4" fill="none" stroke="#6a3d9a" stroke-width="1.8" stroke-linecap="round" stroke-linejoin="round"/></svg>