<svg xmlns="http://www.w3.org/2000/svg" viewBox="0 0 130 64" width="130" height="64"><path d="M65.1 14.1L55.7 20.9L46.0 27.2L37.4 35.1L28.2 42.0L18.9 48.8L30.5 48.2L42.0 49.0L53.5 49.3L65.0 49.7L76.5 48.0L88.0 48.5L99.5 48.0L111.0 49.7L102.1 41.6L91.9 35.9L84.1 27.1L74.9 20.1L65.2 13.7" fill="none" stroke="#6a3d9a" stroke-width="1.8" stroke-linecap="round" stroke-linejoin="round"/><path d="M64.8 13.8L56.3 21.7L47.3 28.9L37.4 34.9L28.8 42.8L19.5 49.6L30.5 48.4L42.0 47.9L53.5 48.9L65.0 48.9L76.5 49.8L88.0 49.0L99.5 49.3L111.0 49.0L102.0 41.7L92.5 35.1L83.1 28.4L74.9 20.0L65.7 13.1" fill="none" stroke="#6a3d9a" stroke-width="1.8" stroke-linecap="round" stroke-linejoin="round"/></svg>