<svg xmlns="http://www.w3.org/2000/svg" viewBox="0 0 130 64" width="130" height="64"><path d="M65.5 25.3L65.5 25.1L64.1 24.9L65.7 24.8L64.4 24.3L64.7 23.8L64.6 23.2L64.9 22.6L66.7 22.8L66.3 21.8L66.2 20.9L66.9 20.2L68.5 20.9L68.9 20.1L69.9 20.3L70.1 18.4L70.9 18.3L72.0 18.6L72.9 18.4L74.0 18.4L74.9 18.8L75.5 20.0L76.7 19.5L77.6 20.2L77.9 21.3L78.7 21.8L79.6 22.3L79.3 23.6L79.7 24.4L80.1 25.2L80.1 26.1L80.8 27.1L79.5 27.9L80.0 29.0L79.3 29.8L79.3 31.1L77.3 31.0L77.0 32.1L76.6 33.2L75.5 33.8L74.1 34.0L74.3 36.0L73.1 36.4L71.8 36.6L71.3 37.8L70.1 38.0L69.0 38.4L69.4 40.4L68.3 40.7L67.8 41.3L66.5 41.3L66.0 41.8L65.7 42.5L65.0 42.8L66.0 44.0L65.5 44.1L64.5 44.1L64.6 44.5L65.8 45.0L64.1 44.8L64.5 44.9L65.7 44.8L64.7 44.9L65.1 44.6L65.8 44.2L65.4 43.7L64.7 43.6L64.9 42.8L64.8 42.2L64.1 41.8L63.4 41.4L63.2 40.4L61.4 40.9L61.1 39.9L60.6 39.0L59.2 38.9L59.2 37.2L57.4 37.6L57.2 36.0L55.9 35.7L55.0 34.9L54.6 33.7L53.1 33.5L52.8 32.3L52.6 30.9L52.3 30.0L50.6 29.9L50.4 28.9L50.6 27.8L49.5 27.1L50.7 26.0L49.5 25.1L50.4 24.4L50.3 23.4L50.0 22.3L50.7 21.4L51.3 20.7L52.6 20.4L53.3 19.8L54.8 20.6L55.4 19.6L56.0 18.3L57.1 19.4L58.0 18.5L58.8 19.0L59.6 19.7L60.3 20.2L60.8 20.7L62.0 20.2L62.8 20.6L63.3 21.2L63.9 21.7L63.6 22.8L64.3 23.0L64.2 23.7L65.4 23.8L64.3 24.6L64.0 24.9L65.6 24.9L64.8 25.1L65.7 25.1L65.0 25.2L65.0 25.2" fill="#f0d24f" opacity="0.5"/><path d="M64.4 25.2L65.5 25.1L65.2 25.0L65.4 24.8L66.1 24.6L64.5 23.7L64.7 23.3L64.9 22.6L65.9 22.5L67.0 22.3L67.2 21.6L67.5 20.9L68.5 20.9L68.6 19.7L69.1 18.9L70.4 19.6L70.9 18.2L72.0 18.5L72.9 18.1L74.0 18.5L74.9 18.5L75.6 19.8L76.7 19.5L77.0 20.9L77.5 21.8L78.7 21.8L79.6 22.2L79.1 23.7L79.3 24.5L79.1 25.3L79.9 26.1L79.7 27.0L79.0 27.8L79.1 28.7L78.2 29.3L78.8 30.8L77.4 31.1L77.0 32.1L76.5 33.1L76.3 34.6L74.8 34.7L74.1 35.8L72.8 36.0L72.0 36.9L71.1 37.6L70.9 39.0L70.0 39.6L68.6 39.6L67.8 40.1L66.7 40.3L66.4 41.2L66.8 42.4L66.1 42.8L65.7 43.2L64.9 43.4L65.5 44.1L64.4 44.1L65.1 44.6L65.2 44.9L65.0 44.9L65.3 45.0L66.0 44.8L64.1 44.9L64.7 44.7L64.1 44.6L65.0 43.9L63.9 44.0L63.7 43.6L63.9 42.8L63.7 42.1L63.5 41.3L62.5 41.1L61.7 40.7L61.1 39.9L61.0 38.5L59.3 38.8L58.2 38.4L58.4 36.3L57.0 36.2L55.7 36.0L54.8 35.2L54.9 33.3L53.9 32.7L52.2 32.8L52.4 31.2L51.1 30.9L50.9 29.7L50.8 28.7L49.4 28.2L51.0 26.9L49.7 26.2L49.4 25.1L50.8 24.4L49.9 23.2L50.1 22.3L51.8 22.2L52.0 21.2L53.3 21.3L53.9 20.6L54.2 19.2L54.9 18.5L56.2 19.4L57.0 18.9L58.0 18.6L58.8 19.9L59.8 18.7L60.4 19.8L61.6 19.2L61.5 21.1L61.9 21.5L63.0 21.6L63.8 21.7L63.6 22.8L63.6 23.4L64.0 23.8L65.6 23.7L64.9 24.4L65.6 24.6L64.9 25.0L64.1 25.2L64.3 25.3L65.0 25.2L65.0 25.2" fill="none" stroke="#c0392b" stroke-width="1.8" stroke-linecap="round" stroke-linejoin="round"/><path d="M64.6 25.2L64.3 25.0L65.5 25.0L65.6 24.8L64.8 24.4L65.1 23.9L65.8 23.7L66.1 23.2L65.9 22.5L65.8 21.5L66.2 20.9L67.0 20.4L68.5 20.8L68.8 19.9L69.6 19.8L70.3 19.0L71.1 18.8L72.0 18.4L73.0 19.9L73.8 19.4L74.9 18.6L75.4 20.1L76.4 20.3L77.0 20.9L77.6 21.7L78.3 22.1L78.4 23.2L78.5 23.9L79.9 24.3L79.6 25.3L80.2 26.1L80.1 27.0L80.0 27.9L79.1 28.7L79.3 29.8L78.7 30.7L77.3 31.0L76.7 31.8L76.2 32.8L75.1 33.4L74.9 34.8L73.7 35.2L73.3 36.6L72.3 37.2L71.7 38.3L69.9 37.9L68.9 38.4L69.0 40.0L68.2 40.6L68.0 41.5L67.4 42.1L66.2 42.0L65.4 42.3L66.4 43.6L65.9 43.9L64.8 43.8L65.6 44.6L64.3 44.4L65.3 44.9L65.1 44.9L65.6 45.1L64.6 45.0L64.8 44.9L64.5 44.7L65.3 44.3L63.8 44.4L64.8 43.6L64.8 42.9L63.7 42.9L63.1 42.6L62.5 42.1L61.9 41.6L62.4 40.0L61.4 39.6L59.8 39.8L59.6 38.4L59.0 37.5L57.7 37.2L56.5 36.9L56.1 35.5L55.1 34.9L55.1 33.2L53.4 33.3L53.5 31.7L52.6 30.9L51.7 30.5L50.3 30.1L51.2 28.6L49.5 28.2L50.2 27.0L49.2 26.2L49.3 25.1L50.1 24.3L50.0 23.3L51.9 23.1L51.7 22.1L52.7 21.8L53.4 21.4L53.9 20.5L54.5 20.0L55.2 19.3L56.3 19.7L57.1 19.3L58.0 18.4L58.8 19.1L59.7 19.1L60.5 19.6L61.0 20.3L61.8 20.7L62.4 21.0L62.7 21.8L63.0 22.3L64.6 22.0L64.9 22.7L65.4 23.1L65.4 23.8L64.0 24.7L65.3 24.6L65.1 25.0L65.1 25.1L64.9 25.2L65.0 25.2L65.0 25.2" fill="none" stroke="#c0392b" stroke-width="1.8" stroke-linecap="round" stroke-linejoin="round"/></svg>