<svg xmlns="http://www.w3.org/2000/svg" viewBox="0 0 130 64" width="130" height="64"><path d="M65.8 25.3L64.2 25.0L66.0 25.1L64.5 24.6L65.4 24.5L66.0 24.2L65.9 23.7L65.2 22.7L66.3 22.6L66.3 21.8L66.1 20.8L67.2 20.6L67.8 20.1L68.9 20.2L69.3 19.2L70.4 19.5L71.3 19.4L72.0 18.4L72.9 18.3L73.8 19.6L74.8 19.3L75.9 19.1L76.8 19.4L76.6 21.4L77.8 21.4L78.7 21.8L79.5 22.3L78.5 23.9L79.4 24.5L79.4 25.3L80.3 26.1L80.3 27.1L79.9 27.9L80.1 29.1L78.8 29.6L78.6 30.6L77.4 31.1L77.3 32.4L76.5 33.1L75.6 33.9L74.1 34.0L74.0 35.6L72.7 35.9L72.4 37.3L71.1 37.5L70.6 38.7L69.0 38.5L69.1 40.0L67.6 39.9L67.2 40.8L66.9 41.7L65.8 41.7L66.2 42.9L65.3 43.0L65.3 43.6L65.4 44.1L65.9 44.7L65.2 44.7L65.4 45.0L65.1 44.9L64.1 44.9L64.6 45.0L65.4 44.8L65.3 44.5L64.4 44.5L64.5 44.1L63.9 44.0L65.0 42.8L63.6 43.0L63.4 42.3L62.9 41.8L63.0 40.6L62.5 39.9L61.4 39.6L60.6 39.0L59.2 39.0L59.4 37.0L57.4 37.5L56.9 36.4L56.0 35.6L55.5 34.3L54.6 33.6L53.4 33.3L53.4 31.7L52.8 30.8L50.7 31.1L51.2 29.5L50.5 28.8L50.0 28.0L50.1 27.0L49.6 26.2L50.5 25.3L50.5 24.4L51.5 23.9L51.8 23.1L52.3 22.6L51.9 21.1L53.2 21.2L53.7 20.4L54.6 20.1L55.7 20.3L56.0 18.3L57.0 18.9L58.0 18.8L58.8 19.4L59.8 18.8L60.2 20.5L61.5 19.4L62.1 20.1L63.0 20.3L63.3 21.2L63.2 22.2L64.6 22.0L64.9 22.7L64.3 23.7L64.5 24.1L64.4 24.6L65.4 24.6L64.4 25.1L64.5 25.1L64.4 25.3L65.0 25.2L65.0 25.2" fill="#f0d24f" opacity="0.5"/><path d="M64.0 25.1L65.7 25.2L65.9 25.1L65.9 24.9L64.2 24.2L65.0 23.9L65.5 23.6L65.8 23.1L65.3 22.1L66.9 22.3L66.6 21.1L67.5 20.9L67.6 19.8L68.8 20.1L69.1 18.9L70.1 18.5L71.2 19.1L72.0 18.6L73.0 19.6L73.9 18.7L74.8 19.2L76.0 18.9L76.7 19.6L77.2 20.6L77.8 21.4L78.5 21.9L78.5 23.1L80.1 23.2L79.1 24.6L80.6 25.1L79.1 26.2L79.8 27.0L79.9 27.9L79.2 28.7L78.4 29.4L77.7 30.0L78.0 31.5L77.9 32.9L77.0 33.5L75.2 33.4L74.4 34.3L73.6 35.1L73.4 36.7L72.0 36.9L71.8 38.4L70.8 38.9L69.8 39.3L68.1 39.0L67.9 40.2L67.0 40.5L67.5 42.3L66.6 42.3L66.7 43.3L66.1 43.5L66.1 44.1L64.5 43.7L65.4 44.5L65.1 44.6L64.7 44.8L64.2 44.8L64.1 44.9L65.1 44.9L65.0 44.8L65.7 44.4L64.7 44.5L64.3 44.2L65.0 43.5L63.9 43.5L63.8 42.9L63.4 42.3L63.1 41.7L62.3 41.2L61.9 40.5L61.2 39.8L59.9 39.7L60.1 37.8L58.3 38.3L58.0 36.9L57.1 36.1L56.0 35.6L54.9 35.1L53.9 34.4L53.4 33.3L52.6 32.5L52.1 31.4L51.1 30.8L51.4 29.4L50.6 28.8L49.3 28.3L49.9 27.0L50.9 26.0L49.1 25.1L50.4 24.4L51.4 23.9L50.7 22.6L51.7 22.1L51.9 21.1L52.6 20.4L53.7 20.3L54.5 19.9L55.1 19.0L56.2 19.2L57.1 19.0L57.9 19.5L58.9 18.2L59.9 18.5L60.6 19.1L61.5 19.5L61.7 20.9L62.6 20.7L62.7 21.9L63.7 21.8L64.3 22.2L64.0 23.2L65.3 23.2L63.8 24.3L64.2 24.7L65.3 24.6L65.3 24.9L64.4 25.2L64.4 25.3L65.0 25.2L65.0 25.2" fill="none" stroke="#c0392b" stroke-width="1.8" stroke-linecap="round" stroke-linejoin="round"/><path d="M65.5 25.3L64.1 25.0L65.3 25.0L65.2 24.7L66.0 24.6L65.6 24.1L64.5 23.2L66.5 23.4L66.5 22.7L66.6 22.0L66.1 20.8L67.8 21.2L67.9 20.2L68.9 20.3L70.0 20.4L70.6 20.1L70.9 18.3L72.1 19.6L72.9 18.9L73.7 19.7L74.8 19.1L75.6 19.6L76.5 20.0L77.6 20.1L78.1 21.0L78.1 22.3L79.7 22.2L80.1 23.2L79.1 24.6L79.5 25.3L79.9 26.1L80.6 27.1L80.5 28.0L79.7 28.9L78.2 29.3L78.4 30.5L77.2 30.9L77.6 32.6L76.6 33.2L75.5 33.8L74.3 34.2L74.3 36.0L72.5 35.6L72.1 36.9L71.8 38.4L70.4 38.4L69.7 39.2L68.5 39.5L67.5 39.8L67.5 41.0L66.6 41.4L66.6 42.3L65.6 42.4L66.4 43.6L65.0 43.4L65.9 44.3L65.0 44.3L65.7 44.8L65.3 44.9L65.7 45.0L65.3 45.0L65.2 44.9L65.0 44.8L64.7 44.7L65.0 44.4L65.3 43.8L64.3 43.8L64.4 43.1L64.0 42.8L64.3 41.6L62.9 41.8L62.8 40.7L61.6 40.8L60.9 40.1L60.8 38.7L59.8 38.2L58.5 38.0L57.4 37.6L57.5 35.7L56.0 35.6L55.5 34.3L54.3 34.0L53.7 32.9L52.9 32.2L52.8 30.8L52.2 30.1L50.9 29.7L50.6 28.8L49.7 28.1L50.6 26.9L49.2 26.2L49.7 25.2L50.9 24.4L49.8 23.2L51.3 22.9L51.6 22.1L52.2 21.3L52.6 20.4L53.1 19.6L54.8 20.6L55.5 19.8L56.3 19.8L56.9 18.2L57.9 19.6L58.9 18.5L59.8 18.7L60.5 19.6L61.1 20.1L62.3 19.7L62.2 21.3L63.0 21.5L62.9 22.4L63.3 23.0L63.9 23.2L64.8 23.4L63.9 24.3L64.5 24.6L65.3 24.6L64.3 25.1L64.5 25.1L65.5 25.2L65.0 25.2L65.0 25.2" fill="none" stroke="#c0392b" stroke-width="1.8" stroke-linecap="round" stroke-linejoin="round"/></svg>