<svg xmlns="http://www.w3.org/2000/svg" viewBox="0 0 130 64" width="130" height="64"><path d="M48.8 25.2L62.0 23.1L74.8 19.2L74.4 32.0L75.0 44.0L62.1 40.4L48.9 38.5L49.9 32.0L47.8 26.0" fill="none" stroke="#e07b1a" stroke-width="1.8" stroke-linecap="round" stroke-linejoin="round"/><path d="M48.9 25.4L62.1 23.5L75.2 20.9L74.3 32.0L75.5 44.0L61.8 42.0L49.1 37.5L49.6 32.0L47.9 26.0" fill="none" stroke="#e07b1a" stroke-width="1.8" stroke-linecap="round" stroke-linejoin="round"/><path d="M75.0 21.0L77.5 20.1L80.0 18.9L80.0 32.0L80.4 44.0L77.5 44.9L75.0 43.1L76.0 32.0L74.1 20.0" fill="#bfe39a" opacity="0.5"/><path d="M75.0 19.9L77.5 19.5L80.0 20.4L80.9 32.0L80.4 44.0L77.5 44.2L75.0 44.1L74.8 32.0L75.2 20.0" fill="none" stroke="#2e8b3d" stroke-width="1.6" stroke-linecap="round" stroke-linejoin="round"/><path d="M75.0 21.1L77.5 21.0L80.0 21.0L79.2 32.0L80.7 44.0L77.5 44.6L75.0 44.1L75.3 32.0L75.3 20.0" fill="none" stroke="#2e8b3d" stroke-width="1.6" stroke-linecap="round" stroke-linejoin="round"/><path d="M55.4 39.0L53.8 43.0L55.5 47.0" fill="none" stroke="#e07b1a" stroke-width="1.8" stroke-linecap="round" stroke-linejoin="round"/><path d="M56.2 39.0L56.0 43.0L55.7 47.0" fill="none" stroke="#e07b1a" stroke-width="1.8" stroke-linecap="round" stroke-linejoin="round"/></svg>