<svg xmlns="http://www.w3.org/2000/svg" viewBox="0 0 130 64" width="130" height="64"><path d="M49.2 26.9L62.2 24.1L75.2 21.0L75.4 32.0L74.0 44.0L61.8 41.8L49.1 37.5L50.1 32.0L48.3 26.0" fill="none" stroke="#e07b1a" stroke-width="1.8" stroke-linecap="round" stroke-linejoin="round"/><path d="M48.8 25.1L62.1 23.4L75.2 20.9L74.5 32.0L73.9 44.0L62.0 41.1L48.9 38.3L48.1 32.0L48.5 26.0" fill="none" stroke="#e07b1a" stroke-width="1.8" stroke-linecap="round" stroke-linejoin="round"/><path d="M75.0 21.1L77.5 19.0L80.0 19.2L80.4 32.0L81.1 44.0L77.5 44.5L75.0 44.8L74.1 32.0L75.1 20.0" fill="#bfe39a" opacity="0.5"/><path d="M75.0 20.1L77.5 20.2L80.0 20.6L79.9 32.0L78.9 44.0L77.5 45.0L75.0 44.7L74.0 32.0L74.5 20.0" fill="none" stroke="#2e8b3d" stroke-width="1.6" stroke-linecap="round" stroke-linejoin="round"/><path d="M75.0 20.6L77.5 21.0L80.0 20.0L80.8 32.0L80.4 44.0L77.5 43.8L75.0 44.5L75.7 32.0L76.1 20.0" fill="none" stroke="#2e8b3d" stroke-width="1.6" stroke-linecap="round" stroke-linejoin="round"/><path d="M55.1 39.0L54.8 43.0L54.2 47.0" fill="none" stroke="#e07b1a" stroke-width="1.8" stroke-linecap="round" stroke-linejoin="round"/><path d="M55.1 39.0L55.7 43.0L53.9 47.0" fill="none" stroke="#e07b1a" stroke-width="1.8" stroke-linecap="round" stroke-linejoin="round"/></svg>