<svg xmlns="http://www.w3.org/2000/svg" viewBox="0 0 130 64" width="130" height="64"><path d="M23.0 20.1L35.0 19.4L47.0 19.5L59.0 19.4L71.0 19.1L83.0 20.0L95.0 19.5L107.0 19.5L107.5 32.5L107.0 45.0L95.0 44.1L83.0 45.8L71.0 44.1L59.0 44.1L47.0 44.7L35.0 44.9L23.0 44.4L23.1 32.5L23.4 20.0" fill="#f6e6a0" opacity="0.3"/><path d="M23.0 21.0L35.0 20.7L47.0 19.4L59.0 18.9L71.0 21.0L83.0 19.7L95.0 20.7L107.0 19.4L107.1 32.5L107.3 45.0L95.0 44.4L83.0 43.9L71.0 45.0L59.0 44.8L47.0 45.4L35.0 45.6L23.0 43.9L22.1 32.5L24.1 20.0" fill="none" stroke="#c69500" stroke-width="1.7" stroke-linecap="round" stroke-linejoin="round"/><path d="M23.0 20.4L35.0 19.0L47.0 21.0L59.0 19.0L71.0 20.2L83.0 19.1L95.0 21.2L107.0 19.5L106.1 32.5L108.1 45.0L95.0 44.6L83.0 46.0L71.0 46.1L59.0 44.8L47.0 43.8L35.0 44.6L23.0 44.1L23.7 32.5L23.1 20.0" fill="none" stroke="#c69500" stroke-width="1.7" stroke-linecap="round" stroke-linejoin="round"/></svg>