<svg xmlns="http://www.w3.org/2000/svg" viewBox="0 0 130 64" width="130" height="64"><path d="M23.0 19.6L35.0 20.8L47.0 20.7L59.0 18.8L71.0 20.1L83.0 19.0L95.0 20.9L107.0 19.0L107.6 32.5L106.4 45.0L95.0 44.8L83.0 44.6L71.0 45.2L59.0 45.0L47.0 45.7L35.0 45.1L23.0 45.6L23.4 32.5L22.1 20.0" fill="#f6e6a0" opacity="0.3"/><path d="M23.0 19.1L35.0 19.3L47.0 20.1L59.0 20.2L71.0 18.8L83.0 21.2L95.0 20.8L107.0 19.7L107.8 32.5L106.2 45.0L95.0 43.9L83.0 45.8L71.0 44.4L59.0 44.2L47.0 44.0L35.0 45.7L23.0 45.9L22.2 32.5L22.4 20.0" fill="none" stroke="#c69500" stroke-width="1.7" stroke-linecap="round" stroke-linejoin="round"/><path d="M23.0 21.0L35.0 21.0L47.0 19.9L59.0 19.1L71.0 19.6L83.0 19.4L95.0 20.4L107.0 20.5L106.3 32.5L107.2 45.0L95.0 45.1L83.0 45.1L71.0 45.3L59.0 45.1L47.0 44.6L35.0 44.5L23.0 45.4L23.2 32.5L22.1 20.0" fill="none" stroke="#c69500" stroke-width="1.7" stroke-linecap="round" stroke-linejoin="round"/></svg>