<svg xmlns="http://www.w3.org/2000/svg" viewBox="0 0 130 64" width="130" height="64"><path d="M112.8 32.6L114.8 33.5L114.5 35.7L115.6 38.2L117.5 39.8L118.0 41.2L119.2 43.0L116.4 44.2L114.3 46.0L110.1 47.2L105.6 47.1L101.2 49.2L96.4 47.9L92.8 50.1L89.0 49.1L86.2 50.5L83.6 52.1L80.2 52.6L77.4 54.5L73.4 55.4L69.2 55.8L65.0 57.3L60.5 57.9L56.4 56.1L52.7 54.1L49.3 53.7L46.3 52.3L44.2 49.6L41.1 49.0L37.3 49.1L33.7 47.6L28.9 48.6L24.2 47.5L19.7 47.7L15.5 46.4L13.7 44.0L11.6 42.2L12.3 41.3L11.6 39.1L13.7 37.5L14.9 35.2L15.4 33.6L17.0 32.5L16.8 30.6L15.9 29.0L13.9 27.3L12.6 25.1L10.9 24.0L10.3 22.1L13.2 20.3L15.2 18.4L19.8 17.3L24.2 16.9L28.9 17.1L33.6 16.5L37.3 15.6L41.1 16.4L44.2 15.6L46.6 13.4L49.2 11.0L52.1 9.5L56.8 10.2L60.2 7.2L65.0 8.7L69.5 8.4L73.5 8.9L77.2 11.1L80.9 10.9L83.8 12.7L86.2 14.4L89.4 14.5L92.6 16.8L96.5 15.9L101.1 16.0L105.9 16.0L110.1 18.3L114.5 18.7L116.5 20.6L118.7 22.3L117.8 23.7L117.1 25.6L116.1 27.3L115.3 29.9L113.9 31.0L113.7 32.9" fill="#f0d24f" opacity="0.28"/><path d="M114.0 31.9L114.0 34.0L114.3 35.8L117.0 36.8L118.6 38.8L118.9 41.0L118.5 43.1L116.7 44.6L114.3 46.0L110.0 46.4L105.8 48.1L101.0 47.5L96.3 47.5L92.8 49.9L88.9 48.4L86.0 50.0L83.7 52.4L80.4 53.1L77.2 54.3L73.2 54.7L69.6 57.0L65.0 56.6L60.5 55.8L56.8 55.0L52.9 53.5L49.6 53.1L46.8 51.2L43.5 51.1L41.2 48.9L37.4 48.2L33.6 48.2L28.9 47.7L24.2 48.6L20.1 46.1L15.8 45.1L14.0 43.7L11.1 43.0L12.1 41.2L11.4 39.1L14.2 38.0L15.8 36.1L15.8 33.8L16.1 32.0L16.0 31.0L15.3 29.4L14.0 27.2L11.8 25.9L10.3 24.1L11.8 21.8L12.7 19.5L16.0 19.4L19.7 17.2L24.1 16.7L29.0 17.5L33.6 15.6L37.2 15.2L41.0 15.7L44.0 15.0L46.9 14.2L49.8 12.4L53.1 11.4L56.6 9.3L60.8 9.3L65.0 7.3L69.5 7.6L73.4 9.4L77.5 10.0L80.1 12.5L83.2 13.8L86.2 14.6L88.7 16.4L92.7 16.2L96.4 16.1L101.1 16.5L105.7 18.0L109.9 18.9L114.6 18.1L116.2 21.1L118.3 22.9L118.5 23.9L118.0 25.8L117.0 28.1L114.7 29.4L113.9 31.0L112.8 32.4" fill="none" stroke="#c69500" stroke-width="1.5" stroke-linecap="round" stroke-linejoin="round"/><path d="M114.0 31.9L112.9 34.6L114.8 35.6L116.6 37.2L117.6 39.7L118.4 41.1L119.0 43.0L116.4 44.3L115.1 47.1L110.1 46.9L105.8 48.1L101.0 47.1L96.3 47.5L92.8 49.5L89.0 49.5L86.5 51.3L83.5 51.7L80.0 52.4L77.0 53.7L73.4 55.7L69.6 57.2L65.0 57.5L60.5 56.5L56.8 54.7L52.4 55.4L49.9 52.4L46.1 52.6L43.5 51.1L40.8 50.0L37.4 48.5L33.6 48.9L28.9 48.5L24.2 47.6L19.7 48.0L15.6 45.7L12.8 45.4L11.1 43.0L10.9 41.0L11.1 39.0L13.6 37.4L15.1 35.4L15.8 33.9L16.8 32.4L16.2 30.9L14.5 29.9L13.0 28.1L12.1 25.6L11.8 23.8L11.1 21.9L13.8 21.1L15.7 19.0L20.0 18.8L24.1 16.5L29.0 17.4L33.7 17.3L37.4 17.0L40.9 15.2L43.6 14.1L47.0 14.4L49.3 11.4L53.2 11.5L56.8 10.3L60.3 7.4L65.0 7.6L69.5 8.8L73.6 8.8L77.6 9.5L80.0 12.7L83.5 13.3L85.9 15.2L89.3 14.8L92.7 15.8L96.3 16.9L101.2 15.7L105.8 16.4L110.0 18.4L114.3 19.8L116.1 21.3L119.5 21.2L118.5 23.9L117.5 25.7L116.5 27.6L114.5 29.1L114.5 31.4L113.9 33.0" fill="none" stroke="#c69500" stroke-width="1.5" stroke-linecap="round" stroke-linejoin="round"/></svg>