<svg xmlns="http://www.w3.org/2000/svg" viewBox="0 0 130 64" width="130" height="64"><path d="M119.4 33.3L110.8 38.8L103.4 45.8L90.3 46.9L77.7 49.2L65.0 50.7L52.5 47.8L39.6 47.1L27.0 45.1L19.6 38.2L10.7 33.1L18.5 25.4L27.6 20.4L39.7 18.7L52.2 15.5L64.9 13.6L77.6 16.7L90.2 19.0L103.2 19.0L110.3 26.9L118.2 33.2" fill="#f0d24f" opacity="0.28"/><path d="M118.7 32.3L111.1 39.1L103.7 46.1L90.5 48.2L77.5 47.8L65.1 51.3L52.4 48.4L39.5 47.7L27.1 44.6L19.2 38.7L10.9 32.9L18.6 25.5L27.3 20.1L39.5 16.9L52.2 15.5L65.0 14.5L77.6 17.0L90.3 18.2L103.1 19.2L110.3 26.9L119.3 31.9" fill="none" stroke="#c69500" stroke-width="1.5" stroke-linecap="round" stroke-linejoin="round"/><path d="M119.6 33.4L111.3 39.3L103.1 45.4L90.5 48.1L77.8 49.6L65.0 50.9L52.3 48.7L39.5 48.0L26.9 45.7L19.7 38.2L11.9 31.6L19.3 26.4L27.2 20.0L39.7 18.1L52.2 15.3L64.8 13.3L77.8 15.0L90.2 18.9L103.0 20.2L110.2 26.9L119.5 31.6" fill="none" stroke="#c69500" stroke-width="1.5" stroke-linecap="round" stroke-linejoin="round"/></svg>