<svg xmlns="http://www.w3.org/2000/svg" viewBox="0 0 130 64" width="130" height="64"><path d="M51.1 41.0L50.8 34.0L49.8 27.0L54.0 30.2L57.8 33.7L60.3 27.8L65.5 23.4L69.2 28.2L72.3 34.1L76.3 30.5L79.7 26.7L79.6 34.0L80.1 41.0L65.0 41.6L50.0 40.1" fill="none" stroke="#6a3d9a" stroke-width="1.7" stroke-linecap="round" stroke-linejoin="round"/><path d="M49.2 41.0L49.2 34.0L49.4 27.0L53.8 30.5L57.0 34.5L60.9 28.3L64.5 22.6L68.4 28.7L73.0 33.7L76.3 30.5L79.6 26.6L79.1 34.0L80.8 41.0L65.0 41.6L50.0 41.5" fill="none" stroke="#6a3d9a" stroke-width="1.7" stroke-linecap="round" stroke-linejoin="round"/></svg>