<svg xmlns="http://www.w3.org/2000/svg" viewBox="0 0 130 64" width="130" height="64"><path d="M50.9 41.0L50.0 34.0L48.9 27.0L54.1 30.1L57.8 33.6L61.1 28.4L65.9 23.6L68.6 28.6L71.9 34.4L75.5 29.7L79.6 26.6L79.4 34.0L80.4 41.0L65.0 41.7L50.0 42.0" fill="none" stroke="#6a3d9a" stroke-width="1.7" stroke-linecap="round" stroke-linejoin="round"/><path d="M48.9 41.0L49.8 34.0L50.1 27.0L53.9 30.3L57.4 34.1L60.8 28.2L64.0 22.3L68.4 28.7L72.8 33.8L76.2 30.5L79.8 26.8L80.6 34.0L81.1 41.0L65.0 41.5L50.0 41.5" fill="none" stroke="#6a3d9a" stroke-width="1.7" stroke-linecap="round" stroke-linejoin="round"/></svg>