<svg xmlns="http://www.w3.org/2000/svg" viewBox="0 0 130 64" width="130" height="64"><path d="M50.4 43.0L51.1 34.5L50.2 26.0L52.6 24.3L51.9 21.5L55.7 22.3L58.2 21.8L60.3 22.3L63.2 21.0L64.0 23.9L63.5 26.1L65.0 34.5L64.0 43.0" fill="none" stroke="#6d6d6d" stroke-width="1.5" stroke-linecap="round" stroke-linejoin="round"/><path d="M50.9 43.0L52.1 34.5L51.2 26.0L52.8 24.4L52.6 21.8L55.6 22.2L58.0 20.8L60.3 22.5L63.2 21.0L62.7 24.2L64.7 25.8L63.9 34.5L63.9 43.0" fill="none" stroke="#6d6d6d" stroke-width="1.5" stroke-linecap="round" stroke-linejoin="round"/><path d="M65.2 43.0L66.8 34.5L65.5 26.0L66.1 23.9L66.0 21.8L69.4 21.0L72.0 20.9L74.4 22.0L77.1 21.7L77.6 24.2L79.8 25.6L79.3 34.5L79.1 43.0" fill="none" stroke="#6d6d6d" stroke-width="1.5" stroke-linecap="round" stroke-linejoin="round"/><path d="M67.1 43.0L66.8 34.5L66.4 26.0L65.4 23.7L66.7 21.9L69.6 22.0L71.9 20.4L74.5 21.7L77.0 21.9L79.1 23.5L77.9 26.5L78.3 34.5L79.7 43.0" fill="none" stroke="#6d6d6d" stroke-width="1.5" stroke-linecap="round" stroke-linejoin="round"/><path d="M51.0 43.3L57.5 42.5L64.0 42.7" fill="none" stroke="#6d6d6d" stroke-width="1.4" stroke-linecap="round" stroke-linejoin="round"/><path d="M51.0 43.1L57.5 42.5L64.0 42.6" fill="none" stroke="#6d6d6d" stroke-width="1.4" stroke-linecap="round" stroke-linejoin="round"/><path d="M66.0 42.7L72.5 43.4L79.0 42.4" fill="none" stroke="#6d6d6d" stroke-width="1.4" stroke-linecap="round" stroke-linejoin="round"/><path d="M66.0 42.3L72.5 43.6L79.0 42.6" fill="none" stroke="#6d6d6d" stroke-width="1.4" stroke-linecap="round" stroke-linejoin="round"/></svg>