<svg xmlns="http://www.w3.org/2000/svg" viewBox="0 0 130 64" width="130" height="64"><path d="M50.3 43.0L52.2 34.5L51.5 26.0L52.5 24.3L52.7 21.9L55.4 21.1L58.0 20.8L60.7 20.7L62.9 22.3L63.7 24.0L63.3 26.2L64.2 34.5L64.1 43.0" fill="none" stroke="#6d6d6d" stroke-width="1.5" stroke-linecap="round" stroke-linejoin="round"/><path d="M51.0 43.0L52.1 34.5L50.6 26.0L52.4 24.2L52.4 21.7L55.5 21.7L57.9 20.5L60.3 22.4L63.1 21.5L62.7 24.2L63.6 26.1L64.1 34.5L63.0 43.0" fill="none" stroke="#6d6d6d" stroke-width="1.5" stroke-linecap="round" stroke-linejoin="round"/><path d="M65.7 43.0L66.6 34.5L66.2 26.0L66.4 24.0L66.0 21.7L69.5 21.3L71.9 20.5L74.5 21.4L76.8 23.1L78.4 23.8L78.6 26.2L78.6 34.5L79.6 43.0" fill="none" stroke="#6d6d6d" stroke-width="1.5" stroke-linecap="round" stroke-linejoin="round"/><path d="M65.8 43.0L65.1 34.5L66.9 26.0L65.9 23.9L66.8 22.0L69.4 21.1L72.2 21.8L74.3 22.3L77.0 22.2L77.9 24.0L79.9 25.6L78.0 34.5L80.0 43.0" fill="none" stroke="#6d6d6d" stroke-width="1.5" stroke-linecap="round" stroke-linejoin="round"/><path d="M51.0 42.7L57.5 42.7L64.0 43.5" fill="none" stroke="#6d6d6d" stroke-width="1.4" stroke-linecap="round" stroke-linejoin="round"/><path d="M51.0 43.4L57.5 42.6L64.0 44.0" fill="none" stroke="#6d6d6d" stroke-width="1.4" stroke-linecap="round" stroke-linejoin="round"/><path d="M66.0 44.1L72.5 41.9L79.0 43.3" fill="none" stroke="#6d6d6d" stroke-width="1.4" stroke-linecap="round" stroke-linejoin="round"/><path d="M66.0 42.9L72.5 42.7L79.0 42.9" fill="none" stroke="#6d6d6d" stroke-width="1.4" stroke-linecap="round" stroke-linejoin="round"/></svg>