<svg xmlns="http://www.w3.org/2000/svg" viewBox="0 0 130 64" width="130" height="64"><path d="M73.0 20.5L66.0 19.4L59.0 19.9L56.5 24.4L53.5 28.4L54.9 32.9L56.7 37.8L59.5 40.5L63.5 42.3L66.9 41.5L70.9 41.0" fill="none" stroke="#2e8b3d" stroke-width="1.8" stroke-linecap="round" stroke-linejoin="round"/><path d="M73.0 21.0L66.0 19.5L59.0 20.9L56.1 24.1L52.5 27.6L54.5 33.0L56.8 37.8L59.0 41.2L62.5 43.7L66.9 41.4L70.9 41.4" fill="none" stroke="#2e8b3d" stroke-width="1.8" stroke-linecap="round" stroke-linejoin="round"/><path d="M67.0 27.0L63.8 27.3L61.1 29.2L61.0 32.1L62.6 34.9L64.4 36.0L67.1 35.6" fill="none" stroke="#2e8b3d" stroke-width="1.5" stroke-linecap="round" stroke-linejoin="round"/><path d="M67.1 27.4L63.8 27.4L60.7 28.2L60.7 32.1L61.8 35.0L64.5 35.3L66.9 36.5" fill="none" stroke="#2e8b3d" stroke-width="1.5" stroke-linecap="round" stroke-linejoin="round"/></svg>