<svg xmlns="http://www.w3.org/2000/svg" viewBox="0 0 130 64" width="130" height="64"><path d="M73.0 19.4L66.0 19.8L59.0 20.6L55.6 23.7L52.9 27.9L54.4 33.0L54.9 38.3L60.0 39.8L62.6 43.5L66.9 42.1L71.1 42.5" fill="none" stroke="#2e8b3d" stroke-width="1.8" stroke-linecap="round" stroke-linejoin="round"/><path d="M73.0 18.9L66.0 20.5L59.0 19.8L55.9 24.0L53.0 28.0L55.3 32.8L55.7 38.1L59.0 41.3L62.8 43.3L66.9 42.0L71.1 42.7" fill="none" stroke="#2e8b3d" stroke-width="1.8" stroke-linecap="round" stroke-linejoin="round"/><path d="M67.1 27.2L64.3 28.8L60.9 28.8L61.6 32.0L61.9 35.0L64.3 36.7L67.0 36.2" fill="none" stroke="#2e8b3d" stroke-width="1.5" stroke-linecap="round" stroke-linejoin="round"/><path d="M66.7 26.0L64.1 28.3L60.8 28.4L62.5 31.8L62.5 34.9L64.4 36.0L66.9 36.4" fill="none" stroke="#2e8b3d" stroke-width="1.5" stroke-linecap="round" stroke-linejoin="round"/></svg>