<svg xmlns="http://www.w3.org/2000/svg" viewBox="0 0 130 64" width="130" height="64"><path d="M65.7 25.3L64.8 25.1L64.6 25.0L64.8 24.7L65.2 24.4L64.4 23.7L65.2 23.5L66.0 23.2L65.4 22.2L66.1 21.7L67.5 21.8L68.0 21.5L67.7 20.0L68.5 19.4L69.1 18.9L70.1 18.5L71.3 19.6L72.1 19.5L72.9 18.5L73.8 19.2L74.7 19.7L76.0 18.9L76.2 20.7L76.7 21.3L78.3 20.8L78.2 22.2L78.7 23.0L79.7 23.4L79.1 24.7L80.4 25.1L80.1 26.1L80.2 27.1L79.9 27.9L78.8 28.6L78.9 29.6L78.3 30.4L77.1 30.9L77.6 32.6L76.9 33.4L75.4 33.7L75.2 35.2L73.2 34.7L73.1 36.4L72.1 37.0L71.2 37.7L69.9 37.8L69.0 38.4L68.5 39.5L68.5 40.9L67.7 41.2L66.6 41.4L66.9 42.5L65.4 42.3L65.1 42.8L65.9 44.0L65.5 44.2L65.6 44.6L64.7 44.5L65.9 45.1L64.6 44.9L65.9 45.1L65.7 44.8L65.1 44.8L65.1 44.6L64.1 44.6L63.9 44.4L64.3 43.8L65.1 42.7L64.2 42.6L64.1 41.7L62.4 42.2L62.0 41.6L61.3 41.0L61.5 39.4L60.1 39.5L59.4 38.7L59.1 37.4L58.2 36.6L56.8 36.4L56.1 35.5L55.0 35.0L54.5 33.8L53.4 33.3L52.6 32.4L51.7 31.7L51.2 30.8L50.6 29.9L49.7 29.2L49.9 28.0L50.3 27.0L49.5 26.2L49.4 25.1L50.9 24.4L50.5 23.5L51.0 22.7L51.2 21.8L52.7 21.8L53.1 21.1L53.7 20.3L54.5 20.0L55.4 19.7L56.2 19.2L57.0 18.8L58.0 18.8L58.8 19.1L59.7 19.2L60.5 19.6L61.2 20.0L61.7 20.9L62.0 21.5L63.5 21.0L64.3 21.3L64.3 22.2L65.1 22.6L64.0 23.8L64.5 24.1L65.3 24.3L65.5 24.6L64.3 25.2L64.3 25.2L64.6 25.2L65.0 25.2L65.0 25.2" fill="none" stroke="#c0392b" stroke-width="1.8" stroke-linecap="round" stroke-linejoin="round"/><path d="M64.9 25.2L64.8 25.1L65.1 25.0L65.8 24.9L66.1 24.6L66.1 24.3L66.1 23.8L65.0 22.6L65.6 22.3L67.2 22.5L66.9 21.4L67.5 20.9L67.8 20.1L69.1 20.6L69.5 19.6L70.6 20.3L70.9 18.3L72.1 20.0L72.9 18.0L74.0 18.5L74.8 19.1L75.5 20.0L76.8 19.4L77.1 20.8L77.4 22.0L78.6 21.9L78.6 23.0L79.2 23.6L79.6 24.4L80.5 25.1L80.1 26.1L79.1 26.9L79.4 27.9L79.9 29.0L79.1 29.7L78.4 30.5L78.2 31.6L77.1 32.1L76.2 32.9L76.2 34.6L75.1 35.1L73.6 35.2L73.3 36.6L72.6 37.6L70.8 37.2L70.5 38.6L68.9 38.3L68.7 39.6L68.6 41.0L67.3 40.8L67.2 42.0L65.9 41.8L65.7 42.5L65.3 43.0L66.2 44.1L66.1 44.4L64.6 44.2L65.8 44.8L65.6 45.0L65.9 45.0L65.7 45.1L64.9 44.9L65.9 44.7L64.6 44.7L64.4 44.5L65.3 43.8L64.0 43.9L64.5 43.1L64.2 42.6L64.2 41.7L62.4 42.2L62.6 40.9L61.8 40.5L61.7 39.2L60.2 39.4L60.0 38.0L58.4 38.1L57.9 36.9L57.7 35.4L55.8 35.8L55.0 35.0L55.0 33.3L53.8 32.8L52.2 32.8L51.6 31.8L51.1 30.8L50.6 29.9L51.2 28.5L50.6 27.8L51.1 26.9L50.3 26.1L50.4 25.3L50.0 24.3L51.0 23.7L51.0 22.7L50.8 21.4L52.1 21.3L52.7 20.5L53.6 20.2L54.0 18.9L54.9 18.5L56.3 20.1L57.0 18.7L58.0 18.7L58.9 18.4L59.6 19.5L60.3 20.3L61.5 19.4L62.0 20.3L62.5 20.9L62.8 21.8L63.5 22.0L64.4 22.2L64.8 22.7L64.2 23.8L65.5 23.7L64.2 24.7L65.8 24.5L65.6 24.9L65.1 25.1L64.3 25.3L65.0 25.2L65.0 25.2" fill="none" stroke="#c0392b" stroke-width="1.8" stroke-linecap="round" stroke-linejoin="round"/></svg>