<svg xmlns="http://www.w3.org/2000/svg" viewBox="0 0 130 64" width="130" height="64"><path d="M65.2 25.2L65.7 25.2L65.6 25.1L64.3 24.6L64.9 24.4L65.6 24.1L64.9 23.4L65.2 22.7L65.2 22.0L66.6 22.0L67.6 21.9L68.1 21.6L67.6 19.8L69.0 20.3L69.4 19.4L70.4 19.6L71.1 18.9L72.1 19.9L73.0 20.0L74.0 18.3L74.7 19.8L75.9 19.1L76.8 19.3L77.4 20.4L77.6 21.6L77.7 22.6L79.6 22.2L79.7 23.4L80.6 24.0L79.8 25.2L80.0 26.1L80.1 27.0L80.1 28.0L78.8 28.6L78.4 29.4L78.8 30.8L78.1 31.5L77.0 32.1L76.0 32.7L74.9 33.2L74.9 34.8L73.6 35.1L72.9 36.1L71.7 36.4L71.6 38.2L70.7 38.8L70.0 39.6L68.2 39.1L68.4 40.8L67.5 41.0L67.4 42.2L66.7 42.4L66.8 43.3L65.6 43.2L66.1 44.1L65.1 43.9L65.5 44.6L65.6 44.8L65.1 44.9L65.3 45.0L65.5 45.1L64.1 45.0L64.1 44.9L65.7 44.4L64.5 44.5L63.9 44.4L64.0 43.9L64.2 43.2L64.8 42.2L63.1 42.6L63.7 41.2L62.5 41.0L61.8 40.5L61.6 39.3L60.4 39.2L59.1 39.0L58.9 37.6L58.1 36.7L57.2 36.0L55.9 35.8L55.8 34.0L54.9 33.3L54.2 32.3L52.7 32.3L52.6 31.0L51.9 30.3L50.4 30.0L49.7 29.1L49.6 28.2L49.4 27.1L49.2 26.2L49.8 25.2L50.7 24.4L50.3 23.4L51.0 22.7L50.8 21.4L51.6 20.9L53.4 21.4L53.0 19.4L54.4 19.8L55.5 19.9L56.3 19.8L57.1 19.5L58.0 18.8L58.8 19.7L59.5 19.9L60.4 20.1L60.8 20.8L62.3 19.6L61.9 21.5L63.3 21.2L63.2 22.2L64.4 22.2L63.6 23.4L65.4 23.1L64.6 24.0L65.4 24.3L65.1 24.7L65.2 25.0L64.7 25.1L64.4 25.3L65.0 25.2L65.0 25.2" fill="none" stroke="#c0392b" stroke-width="1.8" stroke-linecap="round" stroke-linejoin="round"/><path d="M64.7 25.2L64.6 25.1L65.8 25.1L64.7 24.6L64.3 24.3L65.0 23.9L65.9 23.7L65.2 22.8L66.4 22.7L66.5 22.0L67.2 21.6L67.0 20.4L67.5 19.8L68.4 19.3L69.3 19.3L70.3 19.2L70.9 18.1L72.0 19.0L72.9 18.8L73.9 18.8L74.7 19.4L75.2 20.6L76.7 19.6L76.7 21.3L78.1 21.0L78.1 22.3L79.7 22.2L78.5 23.9L79.9 24.3L79.0 25.4L80.6 26.0L80.1 27.0L79.3 27.8L80.0 29.0L79.5 29.9L78.2 30.4L77.2 30.9L77.4 32.5L76.9 33.5L75.8 34.1L74.1 33.9L74.3 36.0L72.8 36.0L72.2 37.1L71.0 37.4L70.7 38.8L69.3 38.9L68.2 39.1L67.6 39.9L67.3 40.8L66.9 41.6L66.3 42.1L66.6 43.2L65.1 42.9L65.1 43.5L65.4 44.1L64.8 44.3L65.2 44.7L65.2 44.9L65.5 45.0L64.8 45.0L65.1 44.9L65.0 44.8L64.0 44.9L65.1 44.3L64.6 44.1L64.7 43.6L64.4 43.1L64.7 42.3L63.0 42.6L63.1 41.7L63.3 40.3L62.3 40.1L61.0 40.0L60.8 38.7L60.3 37.6L58.7 37.8L58.4 36.3L56.6 36.8L56.8 34.7L55.2 34.7L54.0 34.2L54.0 32.6L53.1 32.0L52.8 30.8L52.1 30.2L51.5 29.4L50.6 28.8L51.2 27.5L49.3 27.1L50.7 26.0L50.5 25.3L49.8 24.3L51.2 23.8L50.9 22.7L51.6 22.0L52.7 21.7L52.5 20.2L53.3 19.8L54.5 20.0L54.9 18.6L56.2 19.3L57.2 19.6L58.0 19.0L58.9 18.6L59.5 19.9L60.3 20.2L61.0 20.4L61.9 20.4L62.0 21.5L62.7 21.8L64.1 21.5L64.2 22.3L65.0 22.6L65.4 23.1L65.0 23.9L64.2 24.7L64.3 24.9L65.7 24.9L65.6 25.1L65.2 25.2L65.0 25.2L65.0 25.2" fill="none" stroke="#c0392b" stroke-width="1.8" stroke-linecap="round" stroke-linejoin="round"/></svg>