<svg xmlns="http://www.w3.org/2000/svg" viewBox="0 0 130 64" width="130" height="64"><path d="M24.0 20.8L35.7 20.1L47.4 21.8L59.1 20.9L70.9 21.0L82.6 21.3L94.3 21.5L106.0 21.6L106.2 32.5L106.3 44.0L94.3 44.2L82.6 45.0L70.9 44.2L59.1 43.6L47.4 43.0L35.7 43.4L24.0 43.7L24.2 32.5L23.0 21.0" fill="#bfe39a" opacity="0.5"/><path d="M25.0 45.6L36.7 45.6L48.4 46.4L60.1 45.1L71.9 45.7L83.6 46.0L95.3 46.7L107.0 46.8" fill="none" stroke="#2e8b3d" stroke-width="1.7" stroke-linecap="round" stroke-linejoin="round"/><path d="M25.0 46.3L36.7 45.2L48.4 46.6L60.1 47.0L71.9 46.1L83.6 45.6L95.3 46.0L107.0 45.1" fill="none" stroke="#2e8b3d" stroke-width="1.7" stroke-linecap="round" stroke-linejoin="round"/></svg>