<svg xmlns="http://www.w3.org/2000/svg" viewBox="0 0 130 64" width="130" height="64"><path d="M24.0 20.7L35.7 20.3L47.4 20.8L59.1 21.5L70.9 20.2L82.6 20.3L94.3 21.3L106.0 21.2L105.5 32.5L106.5 44.0L94.3 43.4L82.6 43.5L70.9 43.4L59.1 44.8L47.4 44.1L35.7 45.0L24.0 43.3L24.9 32.5L24.8 21.0" fill="#bfe39a" opacity="0.5"/><path d="M25.0 44.9L36.7 45.6L48.4 46.1L60.1 46.1L71.9 45.1L83.6 46.7L95.3 45.5L107.0 46.0" fill="none" stroke="#2e8b3d" stroke-width="1.7" stroke-linecap="round" stroke-linejoin="round"/><path d="M25.0 45.1L36.7 46.2L48.4 45.1L60.1 45.0L71.9 46.0L83.6 45.5L95.3 46.7L107.0 45.4" fill="none" stroke="#2e8b3d" stroke-width="1.7" stroke-linecap="round" stroke-linejoin="round"/></svg>