<svg xmlns="http://www.w3.org/2000/svg" viewBox="0 0 130 64" width="130" height="64"><path d="M24.9 47.8L26.5 47.4L27.8 46.6L29.0 45.7L30.4 45.2L31.8 45.0L33.2 45.2L34.6 45.1L35.9 45.3L37.2 46.2L38.7 46.3L40.1 47.1L41.5 47.9L42.7 47.1L44.0 46.2L45.4 45.6L46.9 45.5L48.2 45.3L49.6 45.2L50.9 45.6L52.4 45.2L53.6 46.1L54.9 46.8L56.5 47.1L57.7 48.1L59.2 47.4L60.7 46.8L62.0 46.2L63.2 45.2L64.6 45.3L66.0 44.7L67.4 45.1L68.7 45.3L70.2 45.6L71.5 46.4L72.9 47.1L74.2 48.0L75.5 47.1L76.8 46.3L78.3 45.9L79.7 45.4L81.0 44.9L82.4 45.1L83.8 45.0L85.2 45.1L86.5 45.8L87.9 46.4L89.4 47.0L90.6 48.1L92.0 47.4L93.4 46.5L94.8 46.1L95.9 45.0L97.4 45.1L98.8 44.9L100.2 44.9L101.5 45.3L103.0 45.6L104.3 46.5L105.6 47.3L107.0 48.0" fill="none" stroke="#6a3d9a" stroke-width="1.7" stroke-linecap="round" stroke-linejoin="round"/><path d="M24.9 47.9L26.3 47.1L27.5 46.2L29.1 45.8L30.6 45.7L31.8 45.3L33.2 44.8L34.5 45.3L36.0 45.2L37.3 45.9L38.6 46.6L39.9 47.6L41.5 47.9L42.8 47.3L44.3 46.8L45.6 46.2L46.9 45.5L48.2 45.3L49.6 44.9L51.0 45.1L52.4 45.2L53.6 46.2L55.0 46.8L56.5 47.2L57.6 48.3L59.0 46.9L60.4 46.2L61.9 46.0L63.2 45.3L64.6 45.1L66.1 45.4L67.4 44.9L68.8 45.2L70.2 45.7L71.4 46.6L72.9 47.1L74.4 47.6L75.6 47.3L76.9 46.4L78.2 45.8L79.7 45.4L81.1 45.3L82.4 45.0L83.8 45.3L85.1 45.5L86.4 46.2L87.7 46.8L89.3 47.1L90.7 47.9L92.1 47.5L93.3 46.4L94.8 46.1L96.1 45.5L97.5 45.3L98.9 45.4L100.1 45.5L101.6 45.1L102.9 46.0L104.3 46.5L105.6 47.3L107.1 47.9" fill="none" stroke="#6a3d9a" stroke-width="1.7" stroke-linecap="round" stroke-linejoin="round"/></svg>