<svg xmlns="http://www.w3.org/2000/svg" viewBox="0 0 130 64" width="130" height="64"><path d="M25.2 48.3L26.2 47.0L27.7 46.5L29.2 46.1L30.5 45.6L31.8 45.2L33.2 45.1L34.5 45.5L35.9 45.7L37.4 45.8L38.7 46.5L39.8 47.6L41.4 48.0L42.6 47.0L44.2 46.7L45.4 45.6L46.8 45.1L48.2 45.2L49.6 44.8L50.9 45.4L52.3 45.6L53.8 45.8L55.0 46.7L56.4 47.4L57.7 48.1L59.1 47.2L60.5 46.5L61.8 45.7L63.3 45.4L64.7 45.6L66.0 45.3L67.4 44.8L68.8 45.1L70.2 45.8L71.4 46.6L72.9 47.2L74.3 47.7L75.5 47.2L77.0 46.6L78.4 46.1L79.6 45.3L81.1 45.3L82.4 45.1L83.8 45.3L85.2 45.0L86.4 46.1L88.0 46.2L89.4 46.9L90.6 48.0L91.8 46.9L93.2 46.2L94.7 45.9L96.1 45.4L97.4 44.9L98.9 45.4L100.1 45.5L101.5 45.4L102.9 46.0L104.3 46.4L105.4 47.6L107.1 47.7" fill="none" stroke="#6a3d9a" stroke-width="1.7" stroke-linecap="round" stroke-linejoin="round"/><path d="M24.9 47.9L26.3 47.1L27.9 46.8L29.1 46.0L30.4 45.3L31.8 45.1L33.2 45.3L34.6 45.0L35.9 45.6L37.2 46.1L38.7 46.5L40.1 47.2L41.4 48.0L42.7 47.2L44.1 46.4L45.5 46.0L46.8 45.3L48.2 45.0L49.6 45.2L51.0 45.2L52.3 45.4L53.6 46.2L55.1 46.5L56.5 47.2L57.6 48.3L59.4 47.6L60.6 46.7L61.9 45.9L63.3 45.5L64.7 45.4L66.0 44.8L67.3 45.4L68.7 45.8L70.1 46.1L71.4 46.6L72.9 47.2L74.1 48.1L75.5 47.1L77.0 46.7L78.3 46.0L79.8 45.8L81.0 45.1L82.4 45.2L83.8 44.8L85.1 45.3L86.4 46.1L87.9 46.3L89.2 47.3L90.7 47.8L91.9 47.2L93.5 46.8L94.6 45.7L96.2 45.7L97.4 44.9L98.8 45.1L100.1 45.5L101.5 45.7L102.9 45.9L104.2 46.6L105.6 47.4L106.9 48.2" fill="none" stroke="#6a3d9a" stroke-width="1.7" stroke-linecap="round" stroke-linejoin="round"/></svg>