<svg xmlns="http://www.w3.org/2000/svg" viewBox="0 0 130 64" width="130" height="64"><path d="M112.0 33.1L114.3 33.8L114.0 36.0L117.2 36.6L117.9 39.4L119.6 40.9L120.0 42.8L116.6 44.5L113.8 45.3L110.0 46.6L105.6 47.0L101.0 47.5L96.4 48.4L92.8 49.9L89.0 49.3L86.5 51.2L83.4 51.5L80.5 53.3L77.4 54.5L73.6 56.3L69.3 56.3L65.0 56.9L60.5 56.8L56.3 56.6L52.6 54.6L49.7 52.9L47.1 50.5L43.9 50.3L40.7 50.2L37.2 49.4L33.6 48.9L28.9 47.7L24.3 46.8L20.1 45.9L15.7 45.1L13.9 43.8L11.6 42.3L12.5 41.3L10.7 38.9L13.5 37.3L15.4 35.7L16.5 34.2L17.2 32.6L16.3 30.8L16.1 28.9L12.8 28.3L11.9 25.8L12.5 23.7L10.0 22.2L12.8 19.6L16.0 19.5L20.1 19.0L24.0 16.0L28.8 15.7L33.7 17.3L37.4 16.5L41.0 15.7L43.9 14.7L46.8 14.0L49.9 12.6L52.1 9.4L56.3 8.4L60.7 8.9L65.0 9.4L69.5 9.0L73.5 9.1L77.5 10.1L80.6 11.6L83.9 12.4L86.0 15.1L89.2 15.1L92.7 16.3L96.4 16.6L101.1 16.4L105.8 17.5L110.1 17.9L114.6 18.2L116.2 21.1L119.4 21.3L119.4 24.1L118.7 26.0L116.5 27.7L114.3 29.0L114.2 31.2L113.5 32.8" fill="none" stroke="#c0392b" stroke-width="1.5" stroke-linecap="round" stroke-linejoin="round"/><path d="M112.7 32.7L114.4 33.7L114.7 35.6L116.9 37.0L117.5 39.8L119.3 41.0L119.6 42.9L117.0 45.0L114.7 46.5L110.0 46.5L105.7 47.5L101.0 47.5L96.4 48.4L92.8 49.9L88.9 48.8L86.4 51.0L83.6 52.2L80.5 53.2L76.9 53.5L73.5 55.9L69.6 57.1L65.0 55.8L60.5 55.6L56.5 55.9L52.4 55.4L49.9 52.4L46.9 50.9L43.7 50.8L41.2 48.7L37.3 49.2L33.5 49.0L28.9 48.0L24.3 47.3L19.9 47.1L15.7 45.4L12.6 45.6L11.1 43.1L11.2 41.1L10.8 39.0L14.3 38.0L14.6 35.0L15.5 33.7L17.8 33.0L17.1 30.4L16.1 28.9L13.3 27.9L12.6 25.1L10.6 24.1L11.6 21.8L13.9 21.2L15.1 18.2L19.7 17.1L24.3 17.5L29.0 17.7L33.6 17.1L37.4 17.1L41.0 15.5L43.7 14.2L46.3 12.6L49.4 11.5L53.1 11.4L56.3 8.4L60.3 7.5L65.0 7.9L69.5 7.2L73.6 8.9L77.6 9.7L80.8 11.2L83.4 13.5L86.2 14.6L88.9 15.8L92.6 16.7L96.4 16.6L101.0 17.9L105.8 16.1L110.2 17.3L114.7 17.8L117.0 20.0L118.6 22.5L117.5 23.7L118.1 25.8L117.1 28.2L115.1 29.7L113.8 30.9L113.4 32.7" fill="none" stroke="#c0392b" stroke-width="1.5" stroke-linecap="round" stroke-linejoin="round"/></svg>