<svg xmlns="http://www.w3.org/2000/svg" viewBox="0 0 130 64" width="130" height="64"><path d="M118.4 32.0L111.6 39.7L103.2 45.5L90.4 47.4L77.8 49.5L64.8 49.5L52.2 50.0L39.6 47.1L27.0 44.7L19.8 38.0L10.6 33.2L19.0 26.0L27.3 20.1L39.5 16.8L52.2 15.5L65.1 15.3L77.8 15.3L90.4 17.7L103.1 19.2L111.1 25.9L119.5 31.7" fill="none" stroke="#c0392b" stroke-width="1.5" stroke-linecap="round" stroke-linejoin="round"/><path d="M119.5 33.4L110.2 38.0L102.7 44.8L90.3 46.5L77.8 49.5L65.1 51.2L52.3 48.7L39.5 47.7L26.9 45.4L19.7 38.1L11.0 32.8L18.8 25.8L27.7 20.6L39.7 18.2L52.2 15.0L65.0 14.1L77.6 16.5L90.5 16.9L103.1 19.3L110.6 26.5L118.3 33.2" fill="none" stroke="#c0392b" stroke-width="1.5" stroke-linecap="round" stroke-linejoin="round"/></svg>