<svg xmlns="http://www.w3.org/2000/svg" viewBox="0 0 130 64" width="130" height="64"><path d="M30.0 20.7L42.0 19.0L54.0 19.3L66.0 20.4L78.0 19.0L90.0 19.5L102.0 20.5L114.0 20.5L107.5 32.8L100.7 45.4L88.0 45.3L76.0 44.5L64.0 45.3L52.0 45.9L40.0 44.5L28.0 44.8L16.0 44.0L23.9 33.0L30.9 20.5" fill="none" stroke="#2f6fb0" stroke-width="1.6" stroke-linecap="round" stroke-linejoin="round"/><path d="M30.0 19.9L42.0 20.7L54.0 19.5L66.0 19.6L78.0 19.8L90.0 21.0L102.0 20.9L114.0 19.4L107.3 32.7L100.3 45.2L88.0 45.3L76.0 45.3L64.0 45.3L52.0 45.7L40.0 44.8L28.0 44.3L16.0 44.9L23.7 32.9L30.1 20.1" fill="none" stroke="#2f6fb0" stroke-width="1.6" stroke-linecap="round" stroke-linejoin="round"/></svg>