<svg xmlns="http://www.w3.org/2000/svg" viewBox="0 0 130 64" width="130" height="64"><path d="M30.0 19.3L42.0 19.7L54.0 19.7L66.0 20.4L78.0 20.7L90.0 19.7L102.0 20.3L114.0 19.6L107.5 32.8L99.2 44.5L88.0 45.4L76.0 46.0L64.0 45.4L52.0 44.4L40.0 45.7L28.0 44.4L16.0 44.9L23.4 32.7L29.3 19.6" fill="none" stroke="#2f6fb0" stroke-width="1.6" stroke-linecap="round" stroke-linejoin="round"/><path d="M30.0 19.1L42.0 19.1L54.0 19.6L66.0 19.8L78.0 18.8L90.0 20.0L102.0 19.8L114.0 19.6L106.9 32.5L99.1 44.5L88.0 45.7L76.0 44.1L64.0 45.4L52.0 44.4L40.0 45.9L28.0 43.8L16.0 45.2L24.0 33.0L29.4 19.7" fill="none" stroke="#2f6fb0" stroke-width="1.6" stroke-linecap="round" stroke-linejoin="round"/></svg>