<svg xmlns="http://www.w3.org/2000/svg" viewBox="0 0 130 64" width="130" height="64"><path d="M78.3 37.2L74.8 41.8L71.1 46.3L65.0 44.9L59.3 44.9L54.9 42.1L51.2 37.7L52.2 32.0L51.1 26.3L54.7 21.7L58.5 17.4L65.0 19.2L70.7 18.9L75.0 22.0L78.8 26.3L78.8 32.0L79.4 37.7" fill="none" stroke="#c0392b" stroke-width="1.7" stroke-linecap="round" stroke-linejoin="round"/><path d="M78.0 36.9L74.5 41.5L71.2 46.3L65.0 47.0L59.3 45.9L55.0 42.0L51.6 37.2L51.7 32.0L51.4 26.3L54.6 21.6L58.7 17.6L65.0 17.7L70.7 17.6L74.2 22.8L78.8 26.3L78.5 32.0L77.7 37.7" fill="none" stroke="#c0392b" stroke-width="1.7" stroke-linecap="round" stroke-linejoin="round"/></svg>