<svg xmlns="http://www.w3.org/2000/svg" viewBox="0 0 130 64" width="130" height="64"><path d="M79.1 38.0L74.2 41.2L70.2 45.3L65.0 46.8L59.3 46.6L55.0 42.0L51.7 37.1L51.4 32.0L52.1 26.3L54.5 21.5L60.1 19.0L65.0 17.4L70.7 18.5L74.2 22.8L78.5 26.6L79.6 32.0L78.5 37.7" fill="none" stroke="#c0392b" stroke-width="1.7" stroke-linecap="round" stroke-linejoin="round"/><path d="M79.0 37.9L75.6 42.6L71.0 46.1L65.0 46.3L59.3 45.5L54.8 42.2L51.3 37.6L51.6 32.0L50.4 26.3L54.6 21.6L59.6 18.5L65.0 18.1L70.7 17.3L75.5 21.5L78.1 27.0L78.6 32.0L79.2 37.7" fill="none" stroke="#c0392b" stroke-width="1.7" stroke-linecap="round" stroke-linejoin="round"/></svg>