<svg xmlns="http://www.w3.org/2000/svg" viewBox="0 0 130 64" width="130" height="64"><path d="M112.7 32.7L113.8 34.1L114.1 36.0L115.6 38.1L118.4 38.9L118.9 41.0L118.0 43.2L117.0 45.0L114.2 45.8L110.0 46.6L105.7 47.4L101.0 47.1L96.3 47.7L92.8 49.8L89.0 49.1L86.2 50.5L83.3 51.4L80.5 53.3L77.6 55.0L73.3 55.1L69.5 56.7L65.0 57.4L60.5 57.4L56.5 56.0L52.4 55.3L49.6 53.0L46.2 52.3L43.4 51.4L40.6 50.4L37.2 49.9L33.7 48.0L28.9 49.1L24.2 48.0L20.0 46.4L15.5 46.2L12.8 45.3L11.6 42.3L12.3 41.3L10.8 39.0L13.1 37.0L15.2 35.6L16.7 34.4L16.8 32.4L16.6 30.7L14.7 29.8L13.9 27.3L11.5 26.1L11.1 24.0L11.7 21.8L13.8 21.0L16.0 19.4L19.9 18.1L24.2 16.9L28.9 17.3L33.6 16.8L37.4 16.8L41.1 16.3L43.5 13.7L46.5 13.2L49.8 12.3L52.3 9.9L56.4 8.6L60.2 7.1L65.0 8.5L69.5 9.3L73.1 10.4L77.6 9.6L80.2 12.4L83.5 13.3L86.1 14.8L89.1 15.4L92.6 17.1L96.3 17.7L101.2 15.7L105.7 17.6L110.3 17.1L114.7 17.7L117.0 20.0L118.6 22.4L117.4 23.7L119.1 26.0L116.8 27.9L115.6 30.2L113.8 30.9L113.0 32.5" fill="none" stroke="#8a5a2b" stroke-width="1.5" stroke-linecap="round" stroke-linejoin="round"/><path d="M113.3 32.3L114.3 33.8L114.2 35.9L115.9 37.9L118.5 38.8L118.8 41.1L118.7 43.1L116.3 44.1L113.8 45.3L110.2 47.3L105.7 47.4L101.1 48.1L96.3 47.8L92.8 49.8L89.1 50.2L86.5 51.3L83.0 50.6L80.7 53.6L77.4 54.6L73.7 56.5L69.6 57.2L65.0 57.9L60.5 56.6L56.3 56.5L52.7 54.2L49.4 53.5L46.3 52.1L43.8 50.5L40.9 49.7L37.2 49.5L33.5 49.6L28.8 49.2L24.3 46.9L19.8 47.5L15.3 47.2L12.9 45.2L11.0 43.1L12.6 41.3L11.1 39.0L14.2 38.0L15.2 35.5L15.9 33.9L17.6 32.9L15.9 31.1L14.3 30.0L13.6 27.6L12.1 25.6L11.7 23.8L10.5 22.1L13.9 21.2L16.0 19.5L20.1 19.1L24.2 17.0L29.0 17.6L33.6 17.0L37.2 15.3L40.9 14.5L43.5 13.8L46.3 12.6L49.2 11.0L52.5 10.2L56.7 9.9L60.4 7.8L65.0 8.3L69.5 7.1L73.6 8.7L77.1 11.5L80.9 10.9L83.4 13.5L85.9 15.2L88.7 16.3L92.6 16.6L96.4 16.3L101.0 17.5L105.7 17.9L110.0 18.6L114.2 19.9L117.2 19.6L118.3 22.8L118.8 23.9L117.7 25.7L116.9 28.1L114.1 28.8L114.9 31.6L112.8 32.4" fill="none" stroke="#8a5a2b" stroke-width="1.5" stroke-linecap="round" stroke-linejoin="round"/></svg>