<svg xmlns="http://www.w3.org/2000/svg" viewBox="0 0 130 64" width="130" height="64"><path d="M119.2 32.9L111.1 39.1L102.9 45.1L90.5 48.0L77.7 48.8L65.1 51.7L52.2 49.8L39.7 46.7L27.0 45.2L19.3 38.7L11.0 32.7L19.0 26.0L26.5 19.1L39.6 17.5L52.4 16.7L65.1 15.2L77.8 15.1L90.5 17.0L103.0 20.4L110.8 26.3L118.4 33.0" fill="none" stroke="#8a5a2b" stroke-width="1.5" stroke-linecap="round" stroke-linejoin="round"/><path d="M119.3 33.0L111.1 39.1L103.4 45.8L90.3 46.4L77.7 49.2L64.9 50.3L52.5 47.7L39.6 47.5L27.0 45.2L19.4 38.5L11.8 31.7L19.0 26.0L26.7 19.4L39.5 16.9L52.4 17.0L64.9 13.4L77.8 15.1L90.3 18.1L103.1 19.6L110.7 26.4L119.1 32.1" fill="none" stroke="#8a5a2b" stroke-width="1.5" stroke-linecap="round" stroke-linejoin="round"/></svg>