<svg xmlns="http://www.w3.org/2000/svg" viewBox="0 0 130 64" width="130" height="64"><path d="M25.0 22.8L36.4 21.9L47.9 23.0L59.3 21.8L70.7 21.1L82.1 22.3L93.6 22.6L105.0 21.5L105.8 32.5L105.3 43.0L93.6 42.1L82.1 42.5L70.7 43.8L59.3 43.5L47.9 43.8L36.4 43.9L25.0 42.4L24.4 32.5L25.1 22.0" fill="#f0d24f" opacity="0.3"/><path d="M24.0 31.6L30.8 23.6L38.3 16.0L45.0 7.8L46.4 8.3L47.7 8.0L48.8 8.2L50.0 7.8L51.1 7.5L52.5 7.8L53.7 7.2L54.7 6.3L56.0 6.6L57.0 5.7L58.3 5.8L59.5 6.3L60.6 6.5L62.0 6.4L62.8 8.0L64.4 8.1L65.6 9.3L66.4 10.8L67.9 11.7L69.1 12.9L70.5 13.9L71.7 15.1L72.5 16.4L73.9 17.1L74.9 18.0L76.2 18.4L77.3 18.7L78.4 19.4L79.7 18.8L80.9 18.7L82.2 18.6L83.2 17.6L84.3 17.2L85.8 17.4L86.9 17.1L87.9 16.2L89.2 16.2L90.4 16.8L91.4 17.3L92.8 17.0L93.7 18.5L94.9 19.2L96.2 20.1L97.6 21.1L99.0 22.1L100.2 23.3L100.7 25.1L102.4 25.8L103.3 27.1L104.8 27.7L105.7 28.8L107.0 29.2" fill="none" stroke="#6a3d9a" stroke-width="1.6" stroke-linecap="round" stroke-linejoin="round"/><path d="M23.8 31.5L30.8 23.5L38.3 16.0L44.9 7.7L46.5 7.9L47.6 8.5L48.8 8.6L50.0 8.2L51.1 7.5L52.5 7.8L53.5 6.7L54.6 6.0L55.9 6.0L57.1 5.9L58.3 5.5L59.5 5.6L60.7 6.3L61.8 6.9L63.3 7.3L64.3 8.3L65.2 9.8L66.3 10.9L67.7 11.9L68.9 13.2L70.1 14.3L71.6 15.2L72.8 16.0L74.0 17.0L74.7 18.3L76.0 18.7L77.2 19.2L78.6 18.5L79.7 18.9L80.9 18.6L82.1 18.5L83.2 17.7L84.6 18.0L85.5 16.7L86.8 16.8L88.1 16.7L89.2 16.9L90.4 16.8L91.5 17.1L92.7 17.6L93.7 18.5L95.2 18.8L96.2 20.2L97.2 21.4L98.4 22.6L99.9 23.5L100.9 25.0L102.0 26.2L103.4 27.0L104.5 28.0L105.9 28.4L107.0 29.2" fill="none" stroke="#6a3d9a" stroke-width="1.6" stroke-linecap="round" stroke-linejoin="round"/></svg>