<svg xmlns="http://www.w3.org/2000/svg" viewBox="0 0 130 64" width="130" height="64"><path d="M118.1 31.6L111.1 39.1L103.7 46.1L90.3 46.8L77.6 48.2L65.1 51.2L52.2 49.8L39.6 47.5L27.1 44.2L19.5 38.4L10.6 33.2L18.7 25.6L26.3 18.9L39.5 16.9L52.4 16.8L64.9 13.6L77.7 16.3L90.4 17.8L103.2 18.9L110.6 26.5L119.4 31.8" fill="none" stroke="#dd7d00" stroke-width="1.5" stroke-linecap="round" stroke-linejoin="round"/><path d="M118.6 32.2L111.5 39.6L103.2 45.5L90.5 47.8L77.8 49.4L64.8 49.5L52.4 48.1L39.6 47.6L27.1 44.4L18.6 39.5L11.0 32.7L19.6 26.7L27.2 19.9L39.5 17.0L52.5 17.3L64.9 13.7L77.8 15.6L90.3 18.6L103.1 19.3L111.2 25.7L119.5 31.7" fill="none" stroke="#dd7d00" stroke-width="1.5" stroke-linecap="round" stroke-linejoin="round"/></svg>