<svg xmlns="http://www.w3.org/2000/svg" viewBox="0 0 130 64" width="130" height="64"><path d="M79.9 32.2L79.6 34.9L78.2 37.4L76.9 40.0L75.4 42.3L73.0 44.0L70.5 45.1L67.6 45.0L64.8 45.0L62.4 45.1L59.4 46.1L57.9 42.7L55.2 41.7L54.0 39.3L52.3 37.2L51.2 34.7L50.6 32.1L50.5 29.1L52.5 26.7L52.7 23.8L55.5 22.3L57.9 21.4L59.9 19.4L62.4 18.8L65.1 18.7L67.5 19.6L70.2 19.8L72.0 21.6L75.0 22.0L77.4 23.7L77.7 26.8L78.1 29.4L78.1 32.2" fill="none" stroke="#2e8b3d" stroke-width="1.6" stroke-linecap="round" stroke-linejoin="round"/><path d="M78.7 31.9L78.8 34.7L79.1 37.6L75.8 39.2L74.7 41.7L72.0 42.4L70.2 44.7L67.5 44.6L64.9 45.4L62.6 44.3L59.6 45.0L57.9 42.6L55.0 42.1L52.6 40.3L51.7 37.6L51.2 34.7L52.2 31.8L51.3 29.3L51.5 26.5L54.0 24.6L54.3 21.6L57.1 20.2L59.5 18.9L62.1 17.6L65.0 18.2L67.7 18.4L70.2 19.8L72.8 20.3L74.3 23.1L77.0 24.0L77.9 26.7L79.1 29.2L80.1 31.8" fill="none" stroke="#2e8b3d" stroke-width="1.6" stroke-linecap="round" stroke-linejoin="round"/><path d="M64.5 32.0L65.9 28.0L64.5 24.0" fill="none" stroke="#2e8b3d" stroke-width="1.5" stroke-linecap="round" stroke-linejoin="round"/><path d="M65.0 32.0L65.1 28.0L64.4 24.0" fill="none" stroke="#2e8b3d" stroke-width="1.5" stroke-linecap="round" stroke-linejoin="round"/><path d="M65.0 32.1L68.5 32.6L71.2 34.7" fill="none" stroke="#2e8b3d" stroke-width="1.5" stroke-linecap="round" stroke-linejoin="round"/><path d="M65.2 31.5L67.7 34.2L70.7 35.6" fill="none" stroke="#2e8b3d" stroke-width="1.5" stroke-linecap="round" stroke-linejoin="round"/><path d="M53.3 23.3L55.7 20.7L58.6 18.6" fill="none" stroke="#2e8b3d" stroke-width="1.5" stroke-linecap="round" stroke-linejoin="round"/><path d="M53.4 23.4L54.7 19.7L57.4 17.4" fill="none" stroke="#2e8b3d" stroke-width="1.5" stroke-linecap="round" stroke-linejoin="round"/><path d="M77.4 22.6L75.1 19.9L72.8 17.2" fill="none" stroke="#2e8b3d" stroke-width="1.5" stroke-linecap="round" stroke-linejoin="round"/><path d="M77.5 22.5L73.9 21.1L72.1 17.9" fill="none" stroke="#2e8b3d" stroke-width="1.5" stroke-linecap="round" stroke-linejoin="round"/></svg>