<svg xmlns="http://www.w3.org/2000/svg" viewBox="0 0 130 64" width="130" height="64"><path d="M79.0 32.0L79.0 34.8L77.8 37.3L76.2 39.5L75.0 41.9L73.2 44.2L70.4 44.9L67.7 45.5L64.9 45.7L62.5 44.4L59.5 45.5L57.3 43.5L54.5 42.7L54.2 39.2L51.5 37.7L52.3 34.5L51.7 31.9L51.0 29.2L53.0 26.8L53.6 24.4L55.0 22.0L57.4 20.7L60.2 20.0L62.3 18.5L65.0 18.0L67.8 18.0L70.2 19.9L72.6 20.6L75.1 21.8L77.0 24.0L78.5 26.3L77.7 29.5L78.3 32.1" fill="none" stroke="#2e8b3d" stroke-width="1.6" stroke-linecap="round" stroke-linejoin="round"/><path d="M77.9 31.8L77.5 34.5L77.5 37.3L75.8 39.2L74.5 41.6L72.2 42.8L70.0 44.3L67.8 46.2L64.9 45.3L62.2 45.9L59.5 45.5L57.9 42.6L54.5 42.9L53.6 39.6L51.8 37.6L52.2 34.5L51.3 31.9L52.5 29.5L53.1 26.8L53.9 24.6L54.2 21.5L57.6 20.9L59.1 18.3L62.5 19.7L65.2 18.9L67.8 18.1L70.5 18.3L72.4 21.0L74.6 22.6L75.4 25.0L77.7 26.8L79.3 29.1L78.5 32.1" fill="none" stroke="#2e8b3d" stroke-width="1.6" stroke-linecap="round" stroke-linejoin="round"/><path d="M63.9 32.0L65.9 28.0L65.6 24.0" fill="none" stroke="#2e8b3d" stroke-width="1.5" stroke-linecap="round" stroke-linejoin="round"/><path d="M65.7 32.0L65.9 28.0L65.2 24.0" fill="none" stroke="#2e8b3d" stroke-width="1.5" stroke-linecap="round" stroke-linejoin="round"/><path d="M64.5 33.0L67.9 33.8L71.0 35.0" fill="none" stroke="#2e8b3d" stroke-width="1.5" stroke-linecap="round" stroke-linejoin="round"/><path d="M65.1 31.8L68.2 33.2L71.5 34.0" fill="none" stroke="#2e8b3d" stroke-width="1.5" stroke-linecap="round" stroke-linejoin="round"/><path d="M52.4 22.4L56.0 21.0L57.5 17.5" fill="none" stroke="#2e8b3d" stroke-width="1.5" stroke-linecap="round" stroke-linejoin="round"/><path d="M53.3 23.3L56.0 21.0L58.3 18.3" fill="none" stroke="#2e8b3d" stroke-width="1.5" stroke-linecap="round" stroke-linejoin="round"/><path d="M77.0 23.0L74.2 20.8L71.6 18.4" fill="none" stroke="#2e8b3d" stroke-width="1.5" stroke-linecap="round" stroke-linejoin="round"/><path d="M76.5 23.5L74.8 20.2L72.3 17.7" fill="none" stroke="#2e8b3d" stroke-width="1.5" stroke-linecap="round" stroke-linejoin="round"/></svg>