<svg xmlns="http://www.w3.org/2000/svg" viewBox="0 0 130 64" width="130" height="64"><path d="M113.8 32.0L114.9 33.5L114.7 35.6L116.4 37.4L118.0 39.3L119.4 40.9L119.7 42.9L117.1 45.2L114.0 45.5L109.9 45.9L105.6 46.9L101.1 49.2L96.5 49.5L92.6 47.9L89.0 49.5L86.0 49.9L83.5 51.9L80.4 53.1L77.4 54.5L73.5 55.8L69.4 56.5L65.0 57.9L60.5 56.3L56.8 54.8L52.4 55.3L49.6 53.1L46.9 51.0L43.7 50.7L40.7 50.1L37.2 49.7L33.6 48.5L28.8 49.3L24.3 46.9L20.0 46.3L15.6 45.7L13.8 43.9L11.2 42.8L11.2 41.1L12.1 39.2L13.5 37.4L16.1 36.3L16.7 34.4L16.5 32.2L17.0 30.5L15.7 29.2L14.0 27.2L12.4 25.3L11.2 23.9L12.0 21.8L13.8 21.1L15.8 19.2L20.0 18.6L24.3 17.8L28.9 16.6L33.6 17.0L37.2 15.0L41.0 15.2L43.8 14.5L46.2 12.4L49.5 11.7L52.8 10.8L56.7 9.6L60.4 7.6L65.0 9.3L69.5 8.6L73.5 9.0L77.3 10.8L80.3 12.1L83.4 13.5L86.3 14.3L88.6 16.7L92.7 16.4L96.3 17.0L101.0 17.4L105.7 18.3L110.3 16.8L114.4 19.1L116.4 20.8L119.3 21.5L118.8 23.9L119.2 26.1L117.0 28.1L115.0 29.7L114.7 31.5L113.5 32.8" fill="#f0d24f" opacity="0.28"/><path d="M112.2 33.0L113.8 34.1L114.8 35.6L115.7 38.1L118.0 39.3L117.4 41.3L118.6 43.1L116.3 44.0L115.0 47.0L110.1 46.8L105.7 47.3L101.2 49.3L96.3 47.5L92.8 49.7L89.0 49.5L86.5 51.2L83.4 51.6L80.3 52.8L77.9 55.5L73.1 54.6L69.5 56.9L65.0 56.7L60.5 56.5L56.5 56.0L52.5 55.0L49.8 52.7L46.7 51.4L43.6 50.9L41.2 48.9L37.2 49.4L33.5 49.6L28.9 48.8L24.1 49.0L19.7 47.8L15.7 45.6L13.2 44.8L11.6 42.3L12.0 41.2L10.8 38.9L14.4 38.2L16.0 36.3L15.2 33.5L17.8 33.0L16.0 31.1L15.2 29.5L14.4 26.9L11.4 26.3L11.5 23.9L12.1 21.7L13.6 20.8L15.5 18.7L20.1 19.1L24.4 17.9L28.9 17.1L33.5 15.6L37.3 16.4L41.0 15.5L43.5 13.9L46.2 12.5L49.6 12.0L52.2 9.7L56.5 9.2L60.6 8.6L65.0 8.1L69.5 7.7L73.4 9.5L77.4 10.3L80.1 12.6L83.4 13.5L85.8 15.7L88.6 16.6L92.6 16.6L96.5 15.9L101.1 15.9L105.7 18.1L110.0 18.6L114.4 19.1L116.9 20.1L119.2 21.5L118.1 23.8L118.0 25.8L116.3 27.5L114.6 29.2L113.4 30.7L113.6 32.9" fill="none" stroke="#c69500" stroke-width="1.5" stroke-linecap="round" stroke-linejoin="round"/><path d="M113.5 32.2L112.9 34.6L113.9 36.1L115.8 38.0L119.0 38.4L119.6 40.9L119.5 42.9L116.8 44.8L114.3 46.0L110.3 48.0L105.8 47.8L101.2 49.2L96.5 49.5L92.6 48.5L89.0 49.3L86.1 50.2L83.5 51.8L80.4 53.1L77.7 55.2L73.5 56.0L69.3 56.2L65.0 55.9L60.5 57.8L56.3 56.5L52.8 53.8L49.7 52.8L46.9 51.0L43.6 51.1L40.9 49.6L37.2 49.5L33.7 47.8L28.9 48.5L24.2 47.5L20.1 45.9L15.5 46.6L13.4 44.5L11.4 42.6L12.4 41.3L11.7 39.1L13.3 37.1L14.5 34.9L16.9 34.5L16.1 32.0L15.2 31.5L15.3 29.4L13.5 27.7L12.2 25.5L11.0 24.0L11.7 21.8L12.7 19.5L15.1 18.2L20.0 18.3L24.0 16.1L28.9 16.3L33.6 17.0L37.4 16.5L40.9 15.1L43.5 13.7L46.5 13.1L49.9 12.4L52.5 10.2L56.3 8.5L60.7 8.7L65.0 8.4L69.5 9.3L73.1 10.4L77.1 11.4L80.5 11.8L83.1 14.1L86.4 14.1L89.2 15.2L92.7 15.8L96.3 17.5L101.0 17.8L105.8 16.5L110.2 17.6L114.5 18.5L116.9 20.1L119.1 21.7L118.8 23.9L118.9 26.0L116.4 27.5L114.3 29.0L113.8 30.9L112.3 32.1" fill="none" stroke="#c69500" stroke-width="1.5" stroke-linecap="round" stroke-linejoin="round"/><path d="M23.1 48.1L33.5 43.4L44.7 40.8L55.6 37.2L65.8 32.0L76.4 27.5L87.5 24.8L98.3 21.0L109.1 17.2" fill="none" stroke="#c0392b" stroke-width="1.8" stroke-linecap="round" stroke-linejoin="round"/><path d="M23.4 49.1L33.9 44.5L44.7 40.9L54.9 35.4L66.0 32.6L77.0 29.3L87.2 23.8L97.9 19.9L109.2 17.5" fill="none" stroke="#c0392b" stroke-width="1.8" stroke-linecap="round" stroke-linejoin="round"/></svg>