<svg xmlns="http://www.w3.org/2000/svg" viewBox="0 0 130 64" width="130" height="64"><path d="M118.6 32.2L111.0 38.9L102.7 44.9L90.4 47.5L77.5 47.7L65.1 51.6L52.3 48.8L39.7 46.5L27.1 44.4L19.4 38.5L11.5 32.1L19.5 26.6L27.6 20.4L39.6 17.6L52.4 16.6L65.1 15.3L77.6 17.0L90.4 17.7L103.0 20.4L110.4 26.8L118.7 32.6" fill="#f0d24f" opacity="0.28"/><path d="M118.6 32.3L111.1 39.1L102.9 45.2L90.3 46.8L77.8 49.9L65.0 50.3L52.5 47.7L39.8 46.2L27.0 44.8L18.9 39.1L11.5 32.1L19.2 26.2L26.9 19.6L39.7 18.7L52.2 15.1L65.1 15.0L77.8 15.0L90.3 18.1L103.1 19.6L111.3 25.6L118.5 32.9" fill="none" stroke="#c69500" stroke-width="1.5" stroke-linecap="round" stroke-linejoin="round"/><path d="M118.8 32.5L110.8 38.7L102.4 44.5L90.5 47.7L77.8 50.0L65.1 51.1L52.4 48.4L39.5 47.8L26.8 46.1L19.7 38.2L11.4 32.2L19.0 26.0L27.5 20.4L39.6 17.5L52.4 16.5L64.9 13.6L77.7 16.0L90.3 18.6L102.9 20.7L110.4 26.8L119.0 32.3" fill="none" stroke="#c69500" stroke-width="1.5" stroke-linecap="round" stroke-linejoin="round"/><path d="M23.1 48.2L33.6 43.7L44.2 39.4L55.2 36.4L66.3 33.3L77.0 29.4L87.7 25.2L98.6 21.9L108.8 16.5" fill="none" stroke="#c0392b" stroke-width="1.8" stroke-linecap="round" stroke-linejoin="round"/><path d="M22.7 47.3L33.7 44.0L44.3 39.7L55.0 35.7L65.9 32.3L76.9 28.9L87.5 24.7L98.1 20.5L109.3 17.8" fill="none" stroke="#c0392b" stroke-width="1.8" stroke-linecap="round" stroke-linejoin="round"/></svg>