<svg xmlns="http://www.w3.org/2000/svg" viewBox="0 0 130 64" width="130" height="64"><path d="M57.9 43.0L58.2 32.0L58.5 21.0" fill="none" stroke="#2f6fb0" stroke-width="1.9" stroke-linecap="round" stroke-linejoin="round"/><path d="M58.0 43.0L58.2 32.0L57.9 21.0" fill="none" stroke="#2f6fb0" stroke-width="1.9" stroke-linecap="round" stroke-linejoin="round"/><path d="M58.0 21.3L63.5 21.0L69.0 22.3L69.9 26.0L69.9 30.0L64.0 30.9L58.0 31.2" fill="none" stroke="#2f6fb0" stroke-width="1.8" stroke-linecap="round" stroke-linejoin="round"/><path d="M58.0 20.6L63.5 21.3L69.0 22.1L69.5 26.0L70.1 30.0L64.0 30.4L58.0 30.6" fill="none" stroke="#2f6fb0" stroke-width="1.8" stroke-linecap="round" stroke-linejoin="round"/><path d="M58.1 30.9L63.9 37.1L70.0 43.0" fill="none" stroke="#2f6fb0" stroke-width="1.9" stroke-linecap="round" stroke-linejoin="round"/><path d="M57.6 31.4L64.1 36.9L69.8 43.2" fill="none" stroke="#2f6fb0" stroke-width="1.9" stroke-linecap="round" stroke-linejoin="round"/><path d="M51.5 44.5L60.3 35.9L69.7 28.1L78.1 19.1" fill="none" stroke="#2f6fb0" stroke-width="1.8" stroke-linecap="round" stroke-linejoin="round"/><path d="M51.6 44.6L59.9 35.6L69.9 28.2L77.8 18.8" fill="none" stroke="#2f6fb0" stroke-width="1.8" stroke-linecap="round" stroke-linejoin="round"/></svg>