<svg xmlns="http://www.w3.org/2000/svg" viewBox="0 0 130 64" width="130" height="64"><path d="M58.5 43.0L58.6 32.0L57.6 21.0" fill="none" stroke="#2f6fb0" stroke-width="1.9" stroke-linecap="round" stroke-linejoin="round"/><path d="M58.2 43.0L57.6 32.0L58.5 21.0" fill="none" stroke="#2f6fb0" stroke-width="1.9" stroke-linecap="round" stroke-linejoin="round"/><path d="M58.0 20.5L63.5 21.0L69.0 22.3L69.7 26.0L69.5 30.1L64.0 30.1L58.0 30.7" fill="none" stroke="#2f6fb0" stroke-width="1.8" stroke-linecap="round" stroke-linejoin="round"/><path d="M58.0 20.6L63.5 21.7L69.0 22.5L69.6 26.0L70.5 29.9L64.0 30.8L58.0 31.2" fill="none" stroke="#2f6fb0" stroke-width="1.8" stroke-linecap="round" stroke-linejoin="round"/><path d="M57.8 31.2L64.3 36.7L70.3 42.7" fill="none" stroke="#2f6fb0" stroke-width="1.9" stroke-linecap="round" stroke-linejoin="round"/><path d="M58.2 30.8L63.9 37.1L69.8 43.2" fill="none" stroke="#2f6fb0" stroke-width="1.9" stroke-linecap="round" stroke-linejoin="round"/><path d="M51.8 44.8L60.9 36.6L70.0 28.3L78.2 19.2" fill="none" stroke="#2f6fb0" stroke-width="1.8" stroke-linecap="round" stroke-linejoin="round"/><path d="M51.5 44.5L60.3 36.0L70.1 28.4L78.3 19.3" fill="none" stroke="#2f6fb0" stroke-width="1.8" stroke-linecap="round" stroke-linejoin="round"/></svg>